<svg xmlns="http://www.w3.org/2000/svg" xmlns:xlink="http://www.w3.org/1999/xlink" xmlns:fi="http://pattern.flaticon.com/" width="700" height="350"><rect width="100%" height="100%" fill="#fff"/><defs><g id="L1_87" fill="#f5f5f5"><path d="M359.5 0h-208C129.72 0 112 17.72 112 39.5v432c0 21.78 17.72 39.5 39.5 39.5h208c21.78 0 39.5-17.72 39.5-39.5v-432C399 17.72 381.28 0 359.5 0zM127 79h257v49H127V79zm0 64h257v289H127V143zm24.5-128h208c13.509 0 24.5 10.991 24.5 24.5V64H127V39.5c0-13.509 10.991-24.5 24.5-24.5zm208 481h-208c-13.509 0-24.5-10.991-24.5-24.5V447h257v24.5c0 13.509-10.991 24.5-24.5 24.5z" transform="matrix(.0937 .0937 -.0937 .0937 350 302.122)"/><path d="M231.5 47h48a7.5 7.5 0 0 0 0-15h-48a7.5 7.5 0 0 0 0 15zM271.5 464h-32a7.5 7.5 0 0 0 0 15h32a7.5 7.5 0 0 0 0-15zM199.5 47c1.97 0 3.91-.8 5.3-2.2 1.4-1.39 2.2-3.33 2.2-5.3 0-1.97-.8-3.91-2.2-5.3a7.528 7.528 0 0 0-5.3-2.2c-1.97 0-3.91.8-5.3 2.2a7.528 7.528 0 0 0-2.2 5.3c0 1.97.8 3.91 2.2 5.3 1.39 1.4 3.33 2.2 5.3 2.2zM170.197 308.803c1.464 1.464 3.384 2.197 5.303 2.197s3.839-.732 5.303-2.197l56-56a7.5 7.5 0 0 0 0-10.606l-56-56a7.5 7.5 0 0 0-10.606 0 7.5 7.5 0 0 0 0 10.606l50.697 50.697-50.697 50.697a7.5 7.5 0 0 0 0 10.606zM247.5 311h80a7.5 7.5 0 0 0 0-15h-80a7.5 7.5 0 0 0 0 15zM191.5 352h-32c-8.547 0-15.5 6.953-15.5 15.5v32c0 8.547 6.953 15.5 15.5 15.5h32c8.547 0 15.5-6.953 15.5-15.5v-32c0-8.547-6.953-15.5-15.5-15.5zm.5 47.5a.5.5 0 0 1-.5.5h-32a.5.5 0 0 1-.5-.5v-32a.5.5 0 0 1 .5-.5h32a.5.5 0 0 1 .5.5v32zM271.5 352h-32c-8.547 0-15.5 6.953-15.5 15.5v32c0 8.547 6.953 15.5 15.5 15.5h32c8.547 0 15.5-6.953 15.5-15.5v-32c0-8.547-6.953-15.5-15.5-15.5zm.5 47.5a.5.5 0 0 1-.5.5h-32a.5.5 0 0 1-.5-.5v-32a.5.5 0 0 1 .5-.5h32a.5.5 0 0 1 .5.5v32zM351.5 352h-32c-8.547 0-15.5 6.953-15.5 15.5v32c0 8.547 6.953 15.5 15.5 15.5h32c8.547 0 15.5-6.953 15.5-15.5v-32c0-8.547-6.953-15.5-15.5-15.5zm.5 47.5a.5.5 0 0 1-.5.5h-32a.5.5 0 0 1-.5-.5v-32a.5.5 0 0 1 .5-.5h32a.5.5 0 0 1 .5.5v32zM159.5 96h-8a7.5 7.5 0 0 0 0 15h8a7.5 7.5 0 0 0 0-15zM359.5 96h-8a7.5 7.5 0 0 0 0 15h8a7.5 7.5 0 0 0 0-15zM318.5 96h-127a7.5 7.5 0 0 0 0 15h127a7.5 7.5 0 0 0 0-15z" transform="matrix(.0937 .0937 -.0937 .0937 350 302.122)"/></g><g id="L1_88" fill="#f5f5f5"><path d="M39.5 103c1.97 0 3.91-.8 5.3-2.2 1.4-1.39 2.2-3.33 2.2-5.3s-.8-3.91-2.2-5.3a7.528 7.528 0 0 0-5.3-2.2 7.51 7.51 0 0 0-7.5 7.5c0 1.97.8 3.91 2.2 5.3 1.39 1.4 3.33 2.2 5.3 2.2zM63.5 103a7.51 7.51 0 0 0 7.5-7.5 7.51 7.51 0 0 0-7.5-7.5c-1.97 0-3.91.8-5.3 2.2-1.4 1.39-2.2 3.33-2.2 5.3s.8 3.91 2.2 5.3c1.39 1.4 3.33 2.2 5.3 2.2zM87.5 103c1.97 0 3.91-.8 5.3-2.2 1.4-1.39 2.2-3.33 2.2-5.3s-.8-3.91-2.2-5.3a7.528 7.528 0 0 0-5.3-2.2c-1.97 0-3.91.8-5.3 2.2-1.4 1.39-2.2 3.33-2.2 5.3s.8 3.91 2.2 5.3c1.39 1.4 3.33 2.2 5.3 2.2zM220.803 210.197a7.5 7.5 0 0 0-10.606 0l-72 72a7.5 7.5 0 0 0 0 10.606l72 72c1.464 1.464 3.384 2.197 5.303 2.197s3.839-.732 5.303-2.197a7.5 7.5 0 0 0 0-10.606L154.106 287.5l66.697-66.697a7.5 7.5 0 0 0 0-10.606zM295.5 352c-1.97 0-3.91.8-5.3 2.2-1.4 1.39-2.2 3.33-2.2 5.3s.8 3.91 2.2 5.3c1.39 1.4 3.33 2.2 5.3 2.2 1.97 0 3.91-.8 5.3-2.2 1.4-1.39 2.2-3.33 2.2-5.3s-.8-3.91-2.2-5.3a7.528 7.528 0 0 0-5.3-2.2zM295.5 208c-30.603 0-55.5 24.897-55.5 55.5a7.5 7.5 0 0 0 15 0c0-22.332 18.168-40.5 40.5-40.5s40.5 18.168 40.5 40.5-18.168 40.5-40.5 40.5a7.5 7.5 0 0 0-7.5 7.5v16a7.5 7.5 0 0 0 15 0v-9.005c27.07-3.671 48-26.935 48-54.995 0-30.603-24.897-55.5-55.5-55.5zM119.5 103h304a7.5 7.5 0 0 0 0-15h-304a7.5 7.5 0 0 0 0 15zM455.5 103h16a7.5 7.5 0 0 0 0-15h-16a7.5 7.5 0 0 0 0 15z" transform="rotate(16.189 109.744 253.965) scale(.09958)"/><path d="M471.5 56h-432C17.72 56 0 73.72 0 95.5v320C0 437.28 17.72 455 39.5 455h432c21.78 0 39.5-17.72 39.5-39.5v-320c0-21.78-17.72-39.5-39.5-39.5zm-432 15h432c13.509 0 24.5 10.991 24.5 24.5V120H15V95.5C15 81.991 25.991 71 39.5 71zm432 369h-432C25.991 440 15 429.009 15 415.5V135h481v280.5c0 13.509-10.991 24.5-24.5 24.5z" transform="rotate(16.189 109.744 253.965) scale(.09958)"/></g><g id="L1_89" fill="#f5f5f5"><path d="M39.5 103c1.97 0 3.91-.8 5.3-2.2 1.4-1.39 2.2-3.33 2.2-5.3s-.8-3.91-2.2-5.3a7.528 7.528 0 0 0-5.3-2.2c-1.97 0-3.91.8-5.3 2.2-1.4 1.39-2.2 3.33-2.2 5.3s.8 3.91 2.2 5.3c1.39 1.4 3.33 2.2 5.3 2.2zM63.5 103c1.97 0 3.91-.8 5.3-2.2 1.4-1.39 2.2-3.33 2.2-5.3s-.8-3.91-2.2-5.3a7.528 7.528 0 0 0-5.3-2.2c-1.97 0-3.91.8-5.3 2.2-1.4 1.39-2.2 3.33-2.2 5.3s.8 3.91 2.2 5.3c1.39 1.4 3.33 2.2 5.3 2.2zM87.5 103c1.97 0 3.91-.8 5.3-2.2 1.4-1.39 2.2-3.33 2.2-5.3s-.8-3.91-2.2-5.3a7.528 7.528 0 0 0-5.3-2.2c-1.97 0-3.91.8-5.3 2.2a7.528 7.528 0 0 0-2.2 5.3 7.51 7.51 0 0 0 7.5 7.5zM455.5 103h16a7.5 7.5 0 0 0 0-15h-16a7.5 7.5 0 0 0 0 15zM439.5 312h-80c-12.958 0-23.5 10.542-23.5 23.5v56c0 12.958 10.542 23.5 23.5 23.5h80c12.958 0 23.5-10.542 23.5-23.5v-56c0-12.958-10.542-23.5-23.5-23.5zm8.5 79.5c0 4.687-3.813 8.5-8.5 8.5h-80c-4.687 0-8.5-3.813-8.5-8.5v-56c0-4.687 3.813-8.5 8.5-8.5h80c4.687 0 8.5 3.813 8.5 8.5v56zM359.5 231c12.958 0 23.5-10.542 23.5-23.5S372.458 184 359.5 184 336 194.542 336 207.5s10.542 23.5 23.5 23.5zm0-32c4.687 0 8.5 3.813 8.5 8.5s-3.813 8.5-8.5 8.5-8.5-3.813-8.5-8.5 3.813-8.5 8.5-8.5z" transform="rotate(-17.523 1080.86 -302.892) scale(.11739)"/><path d="M423.5 344h-48a7.5 7.5 0 0 0 0 15h48a7.5 7.5 0 0 0 0-15zM399.5 368h-24a7.5 7.5 0 0 0 0 15h24a7.5 7.5 0 0 0 0-15zM39.5 175h16a7.5 7.5 0 0 0 0-15h-16a7.5 7.5 0 0 0 0 15zM39.5 215h16a7.5 7.5 0 0 0 0-15h-16a7.5 7.5 0 0 0 0 15zM63.5 240h-8a7.5 7.5 0 0 0 0 15h8a7.5 7.5 0 0 0 0-15zM39.5 295h16a7.5 7.5 0 0 0 0-15h-16a7.5 7.5 0 0 0 0 15zM87.5 175h32a7.5 7.5 0 0 0 0-15h-32a7.5 7.5 0 0 0 0 15zM87.5 295h64a7.5 7.5 0 0 0 0-15h-64a7.5 7.5 0 0 0 0 15zM87.5 215h80a7.5 7.5 0 0 0 0-15h-80a7.5 7.5 0 0 0 0 15zM95.5 240a7.5 7.5 0 0 0 0 15h32a7.5 7.5 0 0 0 0-15h-32zM191 247.5a7.5 7.5 0 0 0-7.5-7.5h-24a7.5 7.5 0 0 0 0 15h24a7.5 7.5 0 0 0 7.5-7.5zM215.5 240c-1.97 0-3.91.8-5.3 2.2-1.4 1.39-2.2 3.33-2.2 5.3s.8 3.91 2.2 5.3c1.39 1.4 3.33 2.2 5.3 2.2 1.97 0 3.91-.8 5.3-2.2 1.4-1.39 2.2-3.33 2.2-5.3s-.8-3.91-2.2-5.3a7.528 7.528 0 0 0-5.3-2.2zM194.2 322.2c-1.4 1.39-2.2 3.33-2.2 5.3s.8 3.91 2.2 5.3c1.39 1.4 3.33 2.2 5.3 2.2 1.97 0 3.91-.8 5.3-2.2 1.4-1.39 2.2-3.33 2.2-5.3s-.8-3.91-2.2-5.3c-1.39-1.4-3.32-2.2-5.3-2.2s-3.91.8-5.3 2.2zM63.5 320h-8a7.5 7.5 0 0 0 0 15h8a7.5 7.5 0 0 0 0-15zM175 327.5a7.5 7.5 0 0 0-7.5-7.5h-72a7.5 7.5 0 0 0 0 15h72a7.5 7.5 0 0 0 7.5-7.5zM63.5 360h-8a7.5 7.5 0 0 0 0 15h8a7.5 7.5 0 0 0 0-15zM95.5 360a7.5 7.5 0 0 0 0 15h48a7.5 7.5 0 0 0 0-15h-48zM207 367.5a7.5 7.5 0 0 0-7.5-7.5h-24a7.5 7.5 0 0 0 0 15h24a7.5 7.5 0 0 0 7.5-7.5zM55.5 400h-16a7.5 7.5 0 0 0 0 15h16a7.5 7.5 0 0 0 0-15zM111.5 400h-24a7.5 7.5 0 0 0 0 15h24a7.5 7.5 0 0 0 0-15zM223.5 400h-16a7.5 7.5 0 0 0 0 15h16a7.5 7.5 0 0 0 0-15zM151.5 175h64a7.5 7.5 0 0 0 0-15h-64a7.5 7.5 0 0 0 0 15zM175.5 400h-32a7.5 7.5 0 0 0 0 15h32a7.5 7.5 0 0 0 0-15z" transform="rotate(-17.523 1080.86 -302.892) scale(.11739)"/><path d="M471.5 56H263V39.5a7.5 7.5 0 0 0-15 0V56H39.5C17.72 56 0 73.72 0 95.5v320C0 437.28 17.72 455 39.5 455H248v16.5a7.5 7.5 0 0 0 15 0V455h208.5c21.78 0 39.5-17.72 39.5-39.5v-320c0-21.78-17.72-39.5-39.5-39.5zm0 15c13.509 0 24.5 10.991 24.5 24.5V120H263v-17h160.5a7.5 7.5 0 0 0 0-15H263V71h208.5zm-432 0H248v17H119.5a7.5 7.5 0 0 0 0 15H248v17H15V95.5C15 81.991 25.991 71 39.5 71zm0 369C25.991 440 15 429.009 15 415.5V135h233v305H39.5zM263 327h32.5c4.687 0 8.5 3.813 8.5 8.5v56c0 4.687-3.813 8.5-8.5 8.5H263v-73zm0-52.394 48.5-48.5 42.697 42.697a7.5 7.5 0 0 0 10.606 0L448 185.606V271.5c0 4.687-3.813 8.5-8.5 8.5H263v-5.394zm96.5-21.712-42.697-42.697a7.5 7.5 0 0 0-10.606 0L263 253.394V175h174.394L359.5 252.894zM471.5 440H263v-25h32.5c12.958 0 23.5-10.542 23.5-23.5v-56c0-12.958-10.542-23.5-23.5-23.5H263v-17h176.5c12.958 0 23.5-10.542 23.5-23.5v-88c0-12.958-10.542-23.5-23.5-23.5H263v-25h233v280.5c0 13.509-10.991 24.5-24.5 24.5z" transform="rotate(-17.523 1080.86 -302.892) scale(.11739)"/></g><g id="L1_90" fill="#f0f0f0"><path d="m278.908 246.057 82.667-114.158a7.5 7.5 0 0 0-10.473-10.473l-114.158 82.667C216.351 205.416 200 222.58 200 243.5c0 21.78 17.72 39.5 39.5 39.5 20.92 0 38.085-16.351 39.408-36.943zm-4.004-20.046a39.75 39.75 0 0 0-17.915-17.915l64.944-47.028-47.029 64.943zM215 243.5c0-13.509 10.991-24.5 24.5-24.5s24.5 10.991 24.5 24.5-10.991 24.5-24.5 24.5-24.5-10.991-24.5-24.5z" transform="rotate(17.1 -931.032 969.086) scale(.11142)"/><path d="M478.996 243.424a248.032 248.032 0 0 0-.216-10.297c-1.172-27.675-7.203-54.697-17.614-79.992a7.489 7.489 0 0 0-.397-1.288 7.528 7.528 0 0 0-.697-1.301c-11.622-27.317-28.374-52.56-49.682-74.34-.053-.055-.108-.107-.162-.162a7.483 7.483 0 0 0-3.279-3.276c-21.872-21.487-47.282-38.378-74.83-50.044a7.513 7.513 0 0 0-.967-.495 7.693 7.693 0 0 0-.96-.316c-23.8-9.832-49.156-15.785-75.185-17.426a248.965 248.965 0 0 0-15.199-.474c-.103-.002-.204-.013-.308-.013-.107 0-.212.012-.318.016-28.356.024-56.064 4.941-82.563 14.714-30.191 11.137-57.451 28.006-81.024 50.14a246.967 246.967 0 0 0-5.291 5.137c-.051.049-.106.091-.156.141-.063.063-.117.131-.177.195-20.95 20.971-37.631 45.286-49.619 72.397C6.847 177.284 0 209.838 0 243.5c0 48.145 14.272 94.6 41.274 134.344C48.573 388.586 60.778 395 73.921 395H87.5a7.5 7.5 0 0 0 0-15H73.921c-8.17 0-15.736-3.958-20.24-10.586A224.501 224.501 0 0 1 35.06 336.3l22.534-9.334a7.5 7.5 0 0 0-5.74-13.858l-22.543 9.338C20.749 299.701 15.942 275.629 15.13 251H39.5a7.5 7.5 0 0 0 0-15H15.136c.8-24.642 5.541-48.597 14.146-71.457l22.572 9.35a7.472 7.472 0 0 0 2.867.573 7.503 7.503 0 0 0 2.873-14.431l-22.556-9.343c10.16-22.358 23.749-42.659 40.508-60.539l17.229 17.229c1.464 1.464 3.384 2.197 5.303 2.197s3.839-.732 5.303-2.197a7.5 7.5 0 0 0 0-10.606L86.149 79.542c18.176-17.009 38.575-30.621 60.502-40.602l9.384 22.654a7.504 7.504 0 0 0 6.932 4.632 7.5 7.5 0 0 0 6.926-10.372l-9.384-22.655c22.665-8.508 46.727-13.287 71.491-14.075V43.5a7.5 7.5 0 0 0 15 0V19.133c2.351.077 4.704.178 7.064.327a220.537 220.537 0 0 1 64.354 13.917l-9.31 22.477a7.5 7.5 0 1 0 13.858 5.74l9.289-22.425c21.952 10.066 42.347 23.734 60.35 40.619l-16.987 16.987a7.5 7.5 0 0 0 5.303 12.803 7.474 7.474 0 0 0 5.303-2.197l16.984-16.984c16.872 18.031 30.513 38.436 40.569 60.369l-22.372 9.267a7.5 7.5 0 0 0 5.74 13.858l22.424-9.289c8.356 22.019 13.215 45.332 14.224 69.158.032.747.048 1.492.073 2.238H439.5a7.5 7.5 0 0 0 0 15h24.373c-.802 24.664-5.584 48.709-14.158 71.456l-22.57-9.349a7.5 7.5 0 0 0-5.74 13.858l22.544 9.338a225.272 225.272 0 0 1-18.633 33.112c-4.502 6.63-12.068 10.587-20.237 10.587H391.5a7.5 7.5 0 0 0 0 15h13.579c13.144 0 25.347-6.413 32.646-17.154 27.098-39.884 41.265-86.095 41.271-134.246 0-.034.005-.066.005-.1-.001-.026-.005-.051-.005-.076z" transform="rotate(17.1 -931.032 969.086) scale(.11142)"/><path d="M327.5 300h-176c-21.78 0-39.5 17.72-39.5 39.5v96c0 21.78 17.72 39.5 39.5 39.5h176c21.78 0 39.5-17.72 39.5-39.5v-96c0-21.78-17.72-39.5-39.5-39.5zM352 435.5c0 13.509-10.991 24.5-24.5 24.5h-176c-13.509 0-24.5-10.991-24.5-24.5v-96c0-13.509 10.991-24.5 24.5-24.5h176c13.509 0 24.5 10.991 24.5 24.5v96z" transform="rotate(17.1 -931.032 969.086) scale(.11142)"/><path d="M204.803 342.197a7.5 7.5 0 0 0-10.606 0l-40 40a7.5 7.5 0 0 0 0 10.606l40 40c1.464 1.464 3.384 2.197 5.303 2.197s3.839-.732 5.303-2.197a7.5 7.5 0 0 0 0-10.606L170.106 387.5l34.697-34.697a7.5 7.5 0 0 0 0-10.606zM284.803 342.197a7.5 7.5 0 0 0-10.606 0 7.5 7.5 0 0 0 0 10.606l34.697 34.697-34.697 34.697A7.5 7.5 0 0 0 279.5 435a7.474 7.474 0 0 0 5.303-2.197l40-40a7.5 7.5 0 0 0 0-10.606l-40-40zM239.5 396c-1.97 0-3.91.8-5.3 2.2a7.528 7.528 0 0 0-2.2 5.3c0 1.97.8 3.91 2.2 5.3 1.39 1.4 3.33 2.2 5.3 2.2 1.97 0 3.91-.8 5.3-2.2 1.4-1.39 2.2-3.33 2.2-5.3 0-1.97-.8-3.91-2.2-5.3a7.528 7.528 0 0 0-5.3-2.2zM263.5 396c-1.97 0-3.91.8-5.3 2.2a7.528 7.528 0 0 0-2.2 5.3c0 1.97.8 3.91 2.2 5.3 1.39 1.4 3.33 2.2 5.3 2.2 1.97 0 3.91-.8 5.3-2.2 1.4-1.39 2.2-3.33 2.2-5.3a7.51 7.51 0 0 0-7.5-7.5zM215.5 396c-1.97 0-3.91.8-5.3 2.2a7.528 7.528 0 0 0-2.2 5.3c0 1.97.8 3.91 2.2 5.3 1.39 1.4 3.33 2.2 5.3 2.2 1.97 0 3.91-.8 5.3-2.2 1.4-1.39 2.2-3.33 2.2-5.3 0-1.97-.8-3.91-2.2-5.3a7.528 7.528 0 0 0-5.3-2.2z" transform="rotate(17.1 -931.032 969.086) scale(.11142)"/></g><g id="L1_91" fill="#f2f2f2"><path d="M470.962 102.751c-.018-.182-.049-.359-.08-.537-.011-.063-.017-.128-.029-.191a7.465 7.465 0 0 0-.155-.619c-.009-.03-.014-.061-.023-.091a7.439 7.439 0 0 0-.218-.608c-.011-.027-.019-.055-.03-.081a7.142 7.142 0 0 0-.261-.552c-.019-.037-.034-.075-.054-.112a7.01 7.01 0 0 0-.291-.486c-.03-.048-.057-.098-.088-.145-.101-.151-.213-.295-.324-.438-.039-.05-.073-.102-.113-.151a7.717 7.717 0 0 0-.493-.545L372.805 2.198a7.277 7.277 0 0 0-.545-.493c-.049-.04-.102-.074-.151-.113a7.277 7.277 0 0 0-.438-.324c-.047-.032-.097-.058-.145-.088a7.898 7.898 0 0 0-.486-.291c-.036-.02-.075-.035-.112-.054a7.51 7.51 0 0 0-.552-.261c-.027-.011-.055-.019-.081-.03a7.439 7.439 0 0 0-.608-.218c-.03-.009-.061-.015-.091-.023a7.469 7.469 0 0 0-.619-.156c-.063-.013-.128-.018-.191-.029-.178-.031-.355-.062-.537-.08A7.468 7.468 0 0 0 367.5 0h-224C121.72 0 104 17.72 104 39.5V80H71.5C54.131 80 40 94.131 40 111.5v80c0 17.369 14.131 31.5 31.5 31.5H104v248.5c0 21.78 17.72 39.5 39.5 39.5h288c21.78 0 39.5-17.72 39.5-39.5v-368c0-.251-.013-.501-.038-.749zM375 25.606 445.394 96H399.5C385.991 96 375 85.009 375 71.5V25.606zM55 191.5v-80c0-9.098 7.402-16.5 16.5-16.5h232c9.098 0 16.5 7.402 16.5 16.5v80c0 9.098-7.402 16.5-16.5 16.5H111.519l-.019-.001-.019.001H71.5c-9.098 0-16.5-7.402-16.5-16.5zM431.5 496h-288c-13.509 0-24.5-10.991-24.5-24.5V223h184.5c17.369 0 31.5-14.131 31.5-31.5v-80c0-17.369-14.131-31.5-31.5-31.5H119V39.5c0-13.509 10.991-24.5 24.5-24.5H360v56.5c0 21.78 17.72 39.5 39.5 39.5H456v360.5c0 13.509-10.991 24.5-24.5 24.5z" transform="rotate(-8.324 573.106 -307.567) scale(.12397)"/><path d="M223 319.5c0-4.687 3.813-8.5 8.5-8.5h8a7.5 7.5 0 0 0 0-15h-8c-12.958 0-23.5 10.542-23.5 23.5v24c0 4.687-3.813 8.5-8.5 8.5a7.5 7.5 0 0 0 0 15c4.687 0 8.5 3.813 8.5 8.5v24c0 12.958 10.542 23.5 23.5 23.5h8a7.5 7.5 0 0 0 0-15h-8c-4.687 0-8.5-3.813-8.5-8.5v-24a23.412 23.412 0 0 0-6.303-16 23.412 23.412 0 0 0 6.303-16v-24zM375.5 352c-4.687 0-8.5-3.813-8.5-8.5v-24c0-12.958-10.542-23.5-23.5-23.5h-8a7.5 7.5 0 0 0 0 15h8c4.687 0 8.5 3.813 8.5 8.5v24a23.412 23.412 0 0 0 6.303 16 23.412 23.412 0 0 0-6.303 16v24c0 4.687-3.813 8.5-8.5 8.5h-8a7.5 7.5 0 0 0 0 15h8c12.958 0 23.5-10.542 23.5-23.5v-24c0-4.687 3.813-8.5 8.5-8.5a7.5 7.5 0 0 0 0-15zM255.503 384c-1.98 0-3.91.8-5.31 2.2a7.56 7.56 0 0 0-2.19 5.3c0 1.98.8 3.91 2.19 5.3a7.55 7.55 0 0 0 5.31 2.2 7.51 7.51 0 0 0 7.5-7.5c0-1.97-.8-3.91-2.2-5.3-1.4-1.4-3.33-2.2-5.3-2.2zM287.503 384c-1.98 0-3.91.8-5.31 2.2a7.56 7.56 0 0 0-2.19 5.3c0 1.97.8 3.91 2.19 5.3a7.55 7.55 0 0 0 5.31 2.2 7.51 7.51 0 0 0 7.5-7.5 7.51 7.51 0 0 0-7.5-7.5zM319.503 384c-1.98 0-3.91.8-5.31 2.2a7.56 7.56 0 0 0-2.19 5.3c0 1.98.8 3.91 2.19 5.3a7.55 7.55 0 0 0 5.31 2.2 7.51 7.51 0 0 0 7.5-7.5c0-1.97-.8-3.91-2.2-5.3-1.4-1.4-3.33-2.2-5.3-2.2zM199.5 176h-40a7.5 7.5 0 0 0 0 15h40c12.958 0 23.5-10.542 23.5-23.5S212.458 144 199.5 144h-24c-4.687 0-8.5-3.813-8.5-8.5s3.813-8.5 8.5-8.5h32a7.5 7.5 0 0 0 0-15h-32c-12.958 0-23.5 10.542-23.5 23.5s10.542 23.5 23.5 23.5h24c4.687 0 8.5 3.813 8.5 8.5s-3.813 8.5-8.5 8.5zM279.5 176h-40a7.5 7.5 0 0 0 0 15h40c12.958 0 23.5-10.542 23.5-23.5S292.458 144 279.5 144h-24c-4.687 0-8.5-3.813-8.5-8.5s3.813-8.5 8.5-8.5h32a7.5 7.5 0 0 0 0-15h-32c-12.958 0-23.5 10.542-23.5 23.5s10.542 23.5 23.5 23.5h24c4.687 0 8.5 3.813 8.5 8.5s-3.813 8.5-8.5 8.5zM111.5 191c8.835 0 17.344-3.82 23.344-10.48a7.5 7.5 0 0 0-11.144-10.04c-3.207 3.56-7.539 5.52-12.199 5.52h-8c-9.098 0-16.5-7.402-16.5-16.5v-16c0-9.098 7.402-16.5 16.5-16.5h8c4.66 0 8.993 1.96 12.199 5.52a7.499 7.499 0 0 0 10.592.552 7.499 7.499 0 0 0 .552-10.592c-6-6.66-14.508-10.48-23.344-10.48h-8C86.131 112 72 126.131 72 143.5v16c0 17.369 14.131 31.5 31.5 31.5h8z" transform="rotate(-8.324 573.106 -307.567) scale(.12397)"/></g><g id="L1_92" fill="#f2f2f2"><path d="M327.5 0C226.318 0 144 82.318 144 183.5c0 47.899 18.455 91.563 48.619 124.275l-23.391 23.391a7.513 7.513 0 0 0-1.172 1.532C163.131 329.642 157.443 328 151.5 328c-8.417 0-16.327 3.278-22.272 9.228L9.229 457.227C3.278 463.176 0 471.086 0 479.5s3.278 16.324 9.226 22.27C15.173 507.722 23.083 511 31.5 511s16.327-3.278 22.272-9.228l119.999-119.999c5.951-5.949 9.229-13.859 9.229-22.273 0-5.943-1.642-11.631-4.698-16.556a7.483 7.483 0 0 0 1.533-1.172l23.391-23.391C235.937 348.545 279.601 367 327.5 367 428.682 367 511 284.682 511 183.5S428.682 0 327.5 0zM43.163 491.167C40.05 494.284 35.908 496 31.5 496s-8.55-1.716-11.667-4.835C16.716 488.049 15 483.906 15 479.5s1.716-8.549 4.834-11.666l106.697-106.697 23.331 23.331L43.163 491.167zm120.003-120.001-2.697 2.697-23.331-23.331 2.699-2.699c3.113-3.116 7.255-4.833 11.663-4.833s8.55 1.716 11.667 4.835c3.117 3.116 4.833 7.258 4.833 11.665s-1.716 8.549-4.834 11.666zM327.5 352C234.589 352 159 276.411 159 183.5S234.589 15 327.5 15 496 90.589 496 183.5 420.411 352 327.5 352z" transform="matrix(.11074 0 0 .11074 234.207 59.207)"/><path d="M279.5 247a7.474 7.474 0 0 0 5.303-2.197 7.5 7.5 0 0 0 0-10.606L234.106 183.5l50.697-50.697a7.5 7.5 0 0 0 0-10.606 7.5 7.5 0 0 0-10.606 0l-56 56a7.5 7.5 0 0 0 0 10.606l56 56A7.474 7.474 0 0 0 279.5 247zM380.803 122.197a7.5 7.5 0 0 0-10.606 0 7.5 7.5 0 0 0 0 10.606l50.697 50.697-50.697 50.697A7.5 7.5 0 0 0 375.5 247a7.474 7.474 0 0 0 5.303-2.197l56-56a7.5 7.5 0 0 0 0-10.606l-56-56zM327.5 200a7.51 7.51 0 0 0-7.5 7.5c0 1.97.8 3.91 2.2 5.3 1.39 1.4 3.33 2.2 5.3 2.2 1.97 0 3.91-.8 5.3-2.2 1.4-1.39 2.2-3.33 2.2-5.3a7.51 7.51 0 0 0-7.5-7.5zM359.5 200c-1.97 0-3.91.8-5.3 2.2a7.528 7.528 0 0 0-2.2 5.3c0 1.97.8 3.91 2.2 5.3 1.39 1.4 3.33 2.2 5.3 2.2 1.97 0 3.91-.8 5.3-2.2 1.4-1.39 2.2-3.33 2.2-5.3 0-1.97-.8-3.91-2.2-5.3a7.528 7.528 0 0 0-5.3-2.2zM295.5 215c1.97 0 3.91-.8 5.3-2.2 1.4-1.39 2.2-3.33 2.2-5.3 0-1.97-.8-3.91-2.2-5.3a7.528 7.528 0 0 0-5.3-2.2 7.51 7.51 0 0 0-7.5 7.5 7.51 7.51 0 0 0 7.5 7.5zM473.064 141.375c-9.877-34.188-31.68-63.969-61.392-83.858a7.498 7.498 0 0 0-10.404 2.061 7.499 7.499 0 0 0 2.061 10.404c26.779 17.926 46.427 44.759 55.325 75.556a7.503 7.503 0 0 0 7.202 5.42c.689 0 1.39-.096 2.085-.297a7.498 7.498 0 0 0 5.123-9.286zM312.324 319.167c-29.982-3.314-57.389-16.145-79.259-37.105a7.5 7.5 0 0 0-10.604.225 7.5 7.5 0 0 0 .225 10.604c23.926 22.931 55.175 37.558 87.989 41.185a7.5 7.5 0 0 0 1.649-14.909zM206.171 246.107a7.499 7.499 0 0 0-10.107-3.217 7.5 7.5 0 0 0-3.217 10.107 152.061 152.061 0 0 0 8.675 14.683 7.494 7.494 0 0 0 10.405 2.06 7.5 7.5 0 0 0 2.06-10.405 136.565 136.565 0 0 1-7.816-13.228zM357.843 50.383c4.93 1.119 9.851 2.53 14.625 4.195a7.503 7.503 0 0 0 9.552-4.612 7.5 7.5 0 0 0-4.612-9.551 151.04 151.04 0 0 0-16.246-4.66 7.5 7.5 0 1 0-3.319 14.628z" transform="matrix(.11074 0 0 .11074 234.207 59.207)"/></g><g id="L1_93" fill="#f5f5f5"><path d="M39.5 103c1.97 0 3.91-.8 5.3-2.2 1.4-1.39 2.2-3.33 2.2-5.3s-.8-3.91-2.2-5.3a7.528 7.528 0 0 0-5.3-2.2c-1.97 0-3.91.8-5.3 2.2-1.4 1.39-2.2 3.33-2.2 5.3s.8 3.91 2.2 5.3c1.39 1.4 3.33 2.2 5.3 2.2zM63.5 103c1.97 0 3.91-.8 5.3-2.2 1.4-1.39 2.2-3.33 2.2-5.3s-.8-3.91-2.2-5.3a7.528 7.528 0 0 0-5.3-2.2c-1.97 0-3.91.8-5.3 2.2-1.4 1.39-2.2 3.33-2.2 5.3s.8 3.91 2.2 5.3c1.39 1.4 3.33 2.2 5.3 2.2zM87.5 103c1.97 0 3.91-.8 5.3-2.2 1.4-1.39 2.2-3.33 2.2-5.3s-.8-3.91-2.2-5.3a7.528 7.528 0 0 0-5.3-2.2c-1.97 0-3.91.8-5.3 2.2a7.528 7.528 0 0 0-2.2 5.3 7.51 7.51 0 0 0 7.5 7.5zM119.5 103h304a7.5 7.5 0 0 0 0-15h-304a7.5 7.5 0 0 0 0 15zM455.5 103h16a7.5 7.5 0 0 0 0-15h-16a7.5 7.5 0 0 0 0 15zM215.5 272a7.5 7.5 0 0 0-7.5 7.5v8a7.5 7.5 0 0 0 15 0v-8a7.5 7.5 0 0 0-7.5-7.5zM295.5 272a7.5 7.5 0 0 0-7.5 7.5v8a7.5 7.5 0 0 0 15 0v-8a7.5 7.5 0 0 0-7.5-7.5z" transform="matrix(.1342 -.02952 .02952 .1342 285.168 144.255)"/><path d="M471.5 56h-432C17.72 56 0 73.72 0 95.5v320C0 437.28 17.72 455 39.5 455h432c21.78 0 39.5-17.72 39.5-39.5v-320c0-21.78-17.72-39.5-39.5-39.5zm-432 15h432c13.509 0 24.5 10.991 24.5 24.5V120H15V95.5C15 81.991 25.991 71 39.5 71zm287.605 227.926c-4.985 6.475-13.457 9.511-21.592 7.735l-48.022-10.488c-.027-.006-.054-.008-.081-.013a8.182 8.182 0 0 0-.473-.079c-.092-.013-.184-.029-.276-.038-.139-.015-.281-.02-.422-.027-.114-.005-.227-.013-.34-.013-.113 0-.226.007-.339.012-.141.006-.283.012-.423.026-.092.01-.184.025-.276.038a7.335 7.335 0 0 0-.471.077c-.027.005-.055.007-.083.013l-48.847 10.555c-7.857 1.697-16.014-1.103-21.041-7.137A78.164 78.164 0 0 1 183 284.759v-28.12l71.432 14.216a7.515 7.515 0 0 0 2.942-.003L328 256.657V287.5a73.97 73.97 0 0 1-.884 11.413.069.069 0 0 0-.011.013zm.895-57.569-72.112 14.494L183 241.346V239.5c0-31.154 25.346-56.5 56.5-56.5h32c31.154 0 56.5 25.346 56.5 56.5v1.857zm-127.102 80.854c2.569 0 5.161-.27 7.729-.825l47.254-10.211 46.431 10.14c2.595.567 5.212.842 7.808.842 3.339 0 6.64-.465 9.815-1.344a72.756 72.756 0 0 1-14.865 19.593c-14.775 13.849-34.093 20.751-54.411 19.436-17.278-1.119-32.839-8.583-44.677-20.109a7.445 7.445 0 0 0-2.568-2.625 75.602 75.602 0 0 1-11.382-15.993 36.832 36.832 0 0 0 8.866 1.096zm-.05 33.052c13.538 11.208 30.381 18.353 48.842 19.548 1.972.128 3.934.191 5.888.191 20.161 0 39.257-6.777 54.848-19.409a47.76 47.76 0 0 0 24.264 15.971l33.876 9.531c14.024 4.744 23.435 16.95 23.435 30.422V440h-41v-16.5a7.5 7.5 0 0 0-15 0V440H175v-16.5a7.5 7.5 0 0 0-15 0V440h-41v-28.483c0-13.472 9.411-25.678 23.435-30.422l33.876-9.531c9.797-2.756 18.311-8.451 24.537-16.301zM471.5 440H407v-28.483c0-19.991-13.604-37.958-33.853-44.707a6.677 6.677 0 0 0-.34-.105l-34.056-9.581a32.82 32.82 0 0 1-17.449-11.966C335.177 329.291 343 308.715 343 287.5V239.5c0-39.425-32.075-71.5-71.5-71.5h-32c-39.425 0-71.5 32.075-71.5 71.5v45.26c0 22.882 8.333 43.9 22.068 59.892-4.341 6.051-10.569 10.433-17.82 12.473l-34.056 9.581a6.677 6.677 0 0 0-.34.105C117.604 373.56 104 391.526 104 411.517V440H39.5C25.991 440 15 429.009 15 415.5V135h481v280.5c0 13.509-10.991 24.5-24.5 24.5z" transform="matrix(.1342 -.02952 .02952 .1342 285.168 144.255)"/></g><g id="L1_94" fill="#f5f5f5"><path d="M39.5 103c1.97 0 3.91-.8 5.3-2.2 1.4-1.39 2.2-3.33 2.2-5.3s-.8-3.91-2.2-5.3c-1.39-1.4-3.32-2.2-5.3-2.2a7.51 7.51 0 0 0-7.5 7.5c0 1.97.8 3.91 2.2 5.3 1.39 1.4 3.33 2.2 5.3 2.2zM63.5 103a7.51 7.51 0 0 0 7.5-7.5c0-1.97-.8-3.91-2.2-5.3a7.528 7.528 0 0 0-5.3-2.2c-1.97 0-3.91.8-5.3 2.2-1.4 1.39-2.2 3.33-2.2 5.3s.8 3.91 2.2 5.3c1.39 1.4 3.33 2.2 5.3 2.2zM87.5 103c1.97 0 3.91-.8 5.3-2.2 1.4-1.39 2.2-3.33 2.2-5.3s-.8-3.91-2.2-5.3a7.528 7.528 0 0 0-5.3-2.2c-1.97 0-3.91.8-5.3 2.2-1.4 1.39-2.2 3.33-2.2 5.3s.8 3.91 2.2 5.3c1.39 1.4 3.33 2.2 5.3 2.2zM119.5 103h304a7.5 7.5 0 0 0 0-15h-304a7.5 7.5 0 0 0 0 15zM455.5 103h16a7.5 7.5 0 0 0 0-15h-16a7.5 7.5 0 0 0 0 15zM439.5 168h-144c-12.958 0-23.5 10.542-23.5 23.5v.5h-8.5c-12.958 0-23.5 10.542-23.5 23.5V280h-17v-24.5c0-12.958-10.542-23.5-23.5-23.5h-128C58.542 232 48 242.542 48 255.5v64c0 12.958 10.542 23.5 23.5 23.5h128c12.958 0 23.5-10.542 23.5-23.5V295h17v64.5c0 12.958 10.542 23.5 23.5 23.5h8.5v.5c0 12.958 10.542 23.5 23.5 23.5h144c12.958 0 23.5-10.542 23.5-23.5v-16c0-12.958-10.542-23.5-23.5-23.5h-144c-12.958 0-23.5 10.542-23.5 23.5v.5h-8.5c-4.687 0-8.5-3.813-8.5-8.5V295h17v.5c0 12.958 10.542 23.5 23.5 23.5h144c12.958 0 23.5-10.542 23.5-23.5v-16c0-12.958-10.542-23.5-23.5-23.5h-144c-12.958 0-23.5 10.542-23.5 23.5v.5h-17v-64.5c0-4.687 3.813-8.5 8.5-8.5h8.5v.5c0 12.958 10.542 23.5 23.5 23.5h144c12.958 0 23.5-10.542 23.5-23.5v-16c0-12.958-10.542-23.5-23.5-23.5zM208 319.5c0 4.687-3.813 8.5-8.5 8.5h-128c-4.687 0-8.5-3.813-8.5-8.5v-64c0-4.687 3.813-8.5 8.5-8.5h128c4.687 0 8.5 3.813 8.5 8.5v64zm79 48c0-4.687 3.813-8.5 8.5-8.5h144c4.687 0 8.5 3.813 8.5 8.5v16c0 4.687-3.813 8.5-8.5 8.5h-144c-4.687 0-8.5-3.813-8.5-8.5v-16zm0-88c0-4.687 3.813-8.5 8.5-8.5h144c4.687 0 8.5 3.813 8.5 8.5v16c0 4.687-3.813 8.5-8.5 8.5h-144c-4.687 0-8.5-3.813-8.5-8.5v-16zm161-72c0 4.687-3.813 8.5-8.5 8.5h-144c-4.687 0-8.5-3.813-8.5-8.5v-16c0-4.687 3.813-8.5 8.5-8.5h144c4.687 0 8.5 3.813 8.5 8.5v16z" transform="scale(.13699) rotate(-15 4647.93 -3114.93)"/><path d="M471.5 56h-432C17.72 56 0 73.72 0 95.5v320C0 437.28 17.72 455 39.5 455h432c21.78 0 39.5-17.72 39.5-39.5v-320c0-21.78-17.72-39.5-39.5-39.5zm-432 15h432c13.509 0 24.5 10.991 24.5 24.5V120H15V95.5C15 81.991 25.991 71 39.5 71zm432 369h-432C25.991 440 15 429.009 15 415.5V135h481v280.5c0 13.509-10.991 24.5-24.5 24.5z" transform="scale(.13699) rotate(-15 4647.93 -3114.93)"/></g><g id="L1_95" fill="#f7f7f7"><path d="M226.463 448h-144c-13.509 0-24.5-10.991-24.5-24.5v-384c0-13.509 10.991-24.5 24.5-24.5h216.5v40.5c0 21.78 17.72 39.5 39.5 39.5h40.5v152.5a7.5 7.5 0 0 0 15 0v-160c0-.251-.013-.501-.038-.749-.018-.182-.049-.359-.08-.537-.011-.063-.017-.128-.029-.191a7.465 7.465 0 0 0-.155-.619c-.009-.03-.014-.061-.023-.091a7.439 7.439 0 0 0-.218-.608c-.011-.027-.019-.055-.03-.081a7.142 7.142 0 0 0-.261-.552c-.019-.037-.034-.075-.054-.112a7.01 7.01 0 0 0-.291-.486c-.03-.048-.057-.098-.088-.145-.101-.151-.213-.295-.324-.438-.039-.05-.073-.102-.113-.151a7.717 7.717 0 0 0-.493-.545L311.768 2.198a7.277 7.277 0 0 0-.545-.493c-.049-.04-.102-.074-.151-.113a7.277 7.277 0 0 0-.438-.324c-.047-.032-.097-.058-.145-.088a7.898 7.898 0 0 0-.486-.291c-.036-.02-.075-.035-.112-.054a7.51 7.51 0 0 0-.552-.261c-.027-.011-.055-.019-.081-.03a7.439 7.439 0 0 0-.608-.218c-.03-.009-.061-.015-.091-.023a7.469 7.469 0 0 0-.619-.156c-.063-.013-.128-.018-.191-.029-.178-.031-.355-.062-.537-.08a7.468 7.468 0 0 0-.749-.038h-224c-21.78 0-39.5 17.72-39.5 39.5v384c0 21.78 17.72 39.5 39.5 39.5h144a7.5 7.5 0 0 0 0-15zm87.5-392.5V25.606L368.357 80h-29.894c-13.509 0-24.5-10.991-24.5-24.5z" transform="matrix(.12932 0 0 .12932 51.45 232.46)"/><path d="M354.463 328c-35.014 0-63.5 28.486-63.5 63.5s28.486 63.5 63.5 63.5 63.5-28.486 63.5-63.5-28.486-63.5-63.5-63.5zm0 112c-26.743 0-48.5-21.757-48.5-48.5s21.757-48.5 48.5-48.5 48.5 21.757 48.5 48.5-21.757 48.5-48.5 48.5z" transform="matrix(.12932 0 0 .12932 51.45 232.46)"/><path d="m460.28 416.22-4.75-2.742c1.616-7.34 2.433-14.709 2.433-21.978s-.817-14.638-2.433-21.978l4.75-2.742a15.4 15.4 0 0 0 7.222-9.412c1.072-4 .521-8.177-1.549-11.762l-16-27.712a15.4 15.4 0 0 0-9.412-7.223 15.408 15.408 0 0 0-11.762 1.549l-4.721 2.726a103.348 103.348 0 0 0-38.096-21.94V287.5c0-8.547-6.953-15.5-15.5-15.5h-32c-8.547 0-15.5 6.953-15.5 15.5v5.505a103.364 103.364 0 0 0-38.096 21.94l-4.721-2.726a15.396 15.396 0 0 0-11.761-1.548 15.4 15.4 0 0 0-9.412 7.222l-16 27.712a15.393 15.393 0 0 0-1.549 11.762 15.402 15.402 0 0 0 7.222 9.412l4.75 2.742c-1.616 7.34-2.433 14.709-2.433 21.978s.817 14.638 2.433 21.978l-4.749 2.742a15.4 15.4 0 0 0-7.223 9.412 15.403 15.403 0 0 0 1.549 11.762l16 27.713c4.273 7.401 13.771 9.947 21.173 5.673l4.721-2.726a103.348 103.348 0 0 0 38.096 21.94v5.505c0 8.547 6.953 15.5 15.5 15.5h32c8.547 0 15.5-6.953 15.5-15.5v-5.505a103.364 103.364 0 0 0 38.096-21.94l4.721 2.726c7.399 4.271 16.899 1.727 21.173-5.674l16-27.713a15.402 15.402 0 0 0 1.549-11.762 15.4 15.4 0 0 0-7.221-9.41zm-20.616-48.368c2.189 7.9 3.299 15.857 3.299 23.648s-1.11 15.748-3.299 23.648a7.5 7.5 0 0 0 3.478 8.498l9.638 5.564a.478.478 0 0 1 .233.303.475.475 0 0 1-.05.379l-16 27.713a.5.5 0 0 1-.683.183l-9.602-5.543a7.497 7.497 0 0 0-9.101 1.24c-11.218 11.421-25.391 19.583-40.987 23.605a7.5 7.5 0 0 0-5.627 7.262V495.5a.5.5 0 0 1-.5.5h-32a.5.5 0 0 1-.5-.5v-11.146a7.5 7.5 0 0 0-5.627-7.262c-15.596-4.022-29.77-12.185-40.987-23.605a7.496 7.496 0 0 0-9.101-1.24l-9.601 5.543a.501.501 0 0 1-.684-.183l-16-27.713a.472.472 0 0 1-.05-.379.478.478 0 0 1 .233-.304l9.638-5.564a7.5 7.5 0 0 0 3.478-8.498c-2.189-7.9-3.299-15.857-3.299-23.648s1.11-15.748 3.299-23.648a7.5 7.5 0 0 0-3.478-8.498l-9.638-5.564c-.044-.026-.18-.104-.233-.304a.477.477 0 0 1 .05-.379l16.001-27.713a.5.5 0 0 1 .683-.183l9.602 5.543a7.501 7.501 0 0 0 9.101-1.24c11.218-11.421 25.391-19.583 40.987-23.605a7.5 7.5 0 0 0 5.627-7.262V287.5a.5.5 0 0 1 .5-.5h32a.5.5 0 0 1 .5.5v11.146a7.5 7.5 0 0 0 5.627 7.262c15.596 4.022 29.77 12.185 40.987 23.605a7.504 7.504 0 0 0 9.101 1.24l9.601-5.543a.5.5 0 0 1 .684.183l16 27.713c.025.044.103.179.05.379-.054.2-.189.278-.233.304l-9.638 5.564a7.502 7.502 0 0 0-3.479 8.499zM98.463 143h16a7.5 7.5 0 0 0 0-15h-16a7.5 7.5 0 0 0 0 15zM146.463 143h16a7.5 7.5 0 0 0 0-15h-16a7.5 7.5 0 0 0 0 15zM274.463 128h-80a7.5 7.5 0 0 0 0 15h80a7.5 7.5 0 0 0 0-15zM217.963 175.5a7.5 7.5 0 0 0-7.5-7.5h-64a7.5 7.5 0 0 0 0 15h64a7.5 7.5 0 0 0 7.5-7.5zM234.963 175.5a7.5 7.5 0 0 0 7.5 7.5h56a7.5 7.5 0 0 0 0-15h-56a7.5 7.5 0 0 0-7.5 7.5zM98.463 183h16a7.5 7.5 0 0 0 0-15h-16a7.5 7.5 0 0 0 0 15zM98.463 223h16a7.5 7.5 0 0 0 0-15h-16a7.5 7.5 0 0 0 0 15zM202.463 223h136a7.5 7.5 0 0 0 0-15h-136a7.5 7.5 0 0 0 0 15zM146.463 208a7.5 7.5 0 0 0 0 15h24a7.5 7.5 0 0 0 0-15h-24zM234.463 248h-88a7.5 7.5 0 0 0 0 15h88a7.5 7.5 0 0 0 0-15zM138.463 327h32a7.5 7.5 0 0 0 0-15h-32a7.5 7.5 0 0 0 0 15zM98.463 263h16a7.5 7.5 0 0 0 0-15h-16a7.5 7.5 0 0 0 0 15zM93.16 324.803c1.464 1.464 3.384 2.197 5.303 2.197s3.839-.732 5.303-2.197l16-16a7.5 7.5 0 0 0 0-10.606l-16-16a7.5 7.5 0 0 0-10.606 0 7.5 7.5 0 0 0 0 10.606l10.697 10.697-10.697 10.697a7.5 7.5 0 0 0 0 10.606z" transform="matrix(.12932 0 0 .12932 51.45 232.46)"/></g><g id="L1_97" fill="#f5f5f5"><path d="m492.168 309.579-17.626-10.177c2.96-14.723 4.458-29.466 4.458-43.902 0-14.646-1.474-29.403-4.384-43.946l17.552-10.134c5.436-3.138 9.325-8.206 10.949-14.269s.791-12.396-2.348-17.832l-48-83.139A23.345 23.345 0 0 0 438.5 75.231a23.349 23.349 0 0 0-17.833 2.348l-17.566 10.142C380.912 68.2 354.798 53.092 327 43.692V23.5C327 10.542 316.458 0 303.5 0h-96C194.542 0 184 10.542 184 23.5v20.193c-27.65 9.362-53.728 24.49-75.999 44.088L90.332 77.579a23.345 23.345 0 0 0-17.833-2.348A23.349 23.349 0 0 0 58.23 86.18l-48 83.139c-3.139 5.436-3.972 11.769-2.348 17.832s5.513 11.131 10.949 14.269l17.626 10.177C33.499 226.32 32 241.063 32 255.5c0 14.644 1.474 29.401 4.384 43.945l-17.552 10.134c-11.222 6.479-15.08 20.879-8.602 32.102l48 83.139c6.479 11.221 20.879 15.08 32.102 8.601l17.565-10.142c22.19 19.521 48.303 34.629 76.103 44.03V487.5c0 12.958 10.542 23.5 23.5 23.5h96c12.958 0 23.5-10.542 23.5-23.5v-20.193c27.651-9.362 53.729-24.49 76-44.087l17.668 10.201c11.221 6.479 25.623 2.62 32.102-8.601l48-83.139c6.478-11.223 2.62-25.623-8.602-32.102zm-4.389 24.602-48 83.138c-2.343 4.06-7.552 5.455-11.611 3.111l-22.392-12.928a7.5 7.5 0 0 0-8.842.989c-22.893 21.173-50.437 37.148-79.653 46.199a7.5 7.5 0 0 0-5.281 7.164V487.5c0 4.687-3.813 8.5-8.5 8.5h-96c-4.687 0-8.5-3.813-8.5-8.5v-25.645a7.501 7.501 0 0 0-5.28-7.164c-29.396-9.107-56.974-25.062-79.755-46.139a7.494 7.494 0 0 0-8.843-.99l-22.29 12.868c-4.06 2.343-9.268.948-11.611-3.111l-48-83.138c-2.343-4.059-.947-9.268 3.111-11.612l22.272-12.859a7.499 7.499 0 0 0 3.566-8.146C48.739 286.357 47 270.858 47 255.5c0-15.1 1.765-30.584 5.247-46.022a7.5 7.5 0 0 0-3.566-8.145L26.332 188.43a8.445 8.445 0 0 1-3.96-5.161 8.448 8.448 0 0 1 .849-6.45l48-83.139a8.44 8.44 0 0 1 5.162-3.96 8.444 8.444 0 0 1 6.45.849l22.392 12.928a7.498 7.498 0 0 0 8.842-.989c22.894-21.173 50.437-37.148 79.653-46.199a7.5 7.5 0 0 0 5.281-7.164V23.5c0-4.687 3.813-8.5 8.5-8.5h96c4.687 0 8.5 3.813 8.5 8.5v25.645a7.501 7.501 0 0 0 5.28 7.164c29.395 9.106 56.973 25.061 79.755 46.139a7.5 7.5 0 0 0 8.843.99l22.29-12.869a8.445 8.445 0 0 1 6.45-.849 8.45 8.45 0 0 1 5.162 3.96l48 83.139a8.444 8.444 0 0 1 .849 6.45 8.445 8.445 0 0 1-3.96 5.161l-22.272 12.859a7.5 7.5 0 0 0-3.566 8.146c3.431 15.206 5.17 30.704 5.17 46.065 0 15.1-1.765 30.584-5.247 46.021a7.501 7.501 0 0 0 3.566 8.145l22.349 12.903c4.057 2.344 5.453 7.553 3.109 11.612z" transform="matrix(.1423 0 0 .1423 219.644 211.644)"/><path d="M255.5 104C171.962 104 104 171.963 104 255.5S171.962 407 255.5 407 407 339.037 407 255.5 339.038 104 255.5 104zm0 288C180.234 392 119 330.766 119 255.5S180.234 119 255.5 119 392 180.234 392 255.5 330.766 392 255.5 392z" transform="matrix(.1423 0 0 .1423 219.644 211.644)"/><path d="M283.5 216h-28a7.5 7.5 0 0 0-7.5 7.5v64a7.5 7.5 0 0 0 15 0V271h20.5c15.164 0 27.5-12.336 27.5-27.5S298.664 216 283.5 216zm0 40H263v-25h20.5c6.893 0 12.5 5.607 12.5 12.5s-5.607 12.5-12.5 12.5zM214.522 220.867A7.5 7.5 0 0 0 207.5 216h-8a7.498 7.498 0 0 0-7.022 4.867l-24 64a7.5 7.5 0 0 0 14.045 5.267L186.697 279h33.605l4.175 11.133a7.503 7.503 0 0 0 7.023 4.869 7.5 7.5 0 0 0 7.021-10.135l-23.999-64zM192.322 264l11.178-29.807L214.678 264h-22.356zM327.5 216a7.5 7.5 0 0 0-7.5 7.5v64a7.5 7.5 0 0 0 15 0v-64a7.5 7.5 0 0 0-7.5-7.5zM309.152 87.3a175.962 175.962 0 0 1 15.421 5.726 7.473 7.473 0 0 0 2.934.601 7.5 7.5 0 0 0 2.941-14.402 191.008 191.008 0 0 0-16.742-6.216 7.5 7.5 0 0 0-4.554 14.291zM100.45 339.904a7.5 7.5 0 0 0-13.168 7.184 192.173 192.173 0 0 0 10.239 16.677 7.492 7.492 0 0 0 6.189 3.255 7.5 7.5 0 0 0 6.176-11.746 177.217 177.217 0 0 1-9.436-15.37zM240.14 431.341c-40.189-3.463-78.337-20.879-107.416-49.041a7.5 7.5 0 1 0-10.435 10.775c31.55 30.555 72.947 49.452 116.563 53.21a7.501 7.501 0 0 0 8.116-6.828 7.501 7.501 0 0 0-6.828-8.116zM363.425 97.287a7.5 7.5 0 0 0-8.464 12.384c34.844 23.813 60.049 59.248 70.972 99.776a7.503 7.503 0 0 0 7.237 5.55 7.5 7.5 0 0 0 7.246-9.453c-11.852-43.98-39.195-82.426-76.991-108.257z" transform="matrix(.1423 0 0 .1423 219.644 211.644)"/></g><g id="L1_98" fill="#f5f5f5"><path d="M479.5 132h-448C14.131 132 0 146.131 0 163.5v96C0 276.869 14.131 291 31.5 291h280a7.5 7.5 0 0 0 0-15h-280c-9.098 0-16.5-7.402-16.5-16.5v-96c0-9.098 7.402-16.5 16.5-16.5h448c9.098 0 16.5 7.402 16.5 16.5v72a7.5 7.5 0 0 0 15 0v-72c0-17.369-14.131-31.5-31.5-31.5z" transform="matrix(.1007 .03147 -.03147 .1007 118.313 198.234)"/><path d="M479 253.234V243.5c0-35.014-28.486-63.5-63.5-63.5S352 208.486 352 243.5v9.734c-9.29 3.138-16 11.93-16 22.266v80c0 12.958 10.542 23.5 23.5 23.5h112c12.958 0 23.5-10.542 23.5-23.5v-80c0-10.336-6.71-19.128-16-22.266zM415.5 195c26.743 0 48.5 21.757 48.5 48.5v8.5h-97v-8.5c0-26.743 21.757-48.5 48.5-48.5zM480 355.5c0 4.687-3.813 8.5-8.5 8.5h-112c-4.687 0-8.5-3.813-8.5-8.5v-80c0-4.687 3.813-8.5 8.5-8.5h112c4.687 0 8.5 3.813 8.5 8.5v80zM121.708 191.75a7.5 7.5 0 0 0-10.245-2.745L95 198.51V179.5a7.5 7.5 0 0 0-15 0v19.01l-16.463-9.505a7.5 7.5 0 0 0-7.5 12.99L72.5 211.5l-16.463 9.505a7.5 7.5 0 0 0 7.5 12.99L80 224.49v19.01a7.5 7.5 0 0 0 15 0v-19.01l16.463 9.505a7.497 7.497 0 0 0 10.245-2.745 7.5 7.5 0 0 0-2.745-10.245L102.5 211.5l16.463-9.505a7.5 7.5 0 0 0 2.745-10.245zM217.708 191.75a7.5 7.5 0 0 0-10.245-2.745L191 198.51V179.5a7.5 7.5 0 0 0-15 0v19.01l-16.463-9.505a7.5 7.5 0 0 0-7.5 12.99L168.5 211.5l-16.463 9.505a7.5 7.5 0 0 0 7.5 12.99L176 224.49v19.01a7.5 7.5 0 0 0 15 0v-19.01l16.463 9.505a7.497 7.497 0 0 0 10.245-2.745 7.5 7.5 0 0 0-2.745-10.245L198.5 211.5l16.463-9.505a7.5 7.5 0 0 0 2.745-10.245zM313.708 191.75a7.5 7.5 0 0 0-10.245-2.745L287 198.51V179.5a7.5 7.5 0 0 0-15 0v19.01l-16.463-9.505a7.5 7.5 0 0 0-7.5 12.99L264.5 211.5l-16.463 9.505a7.5 7.5 0 0 0 7.5 12.99L272 224.49v19.01a7.5 7.5 0 0 0 15 0v-19.01l16.463 9.505a7.497 7.497 0 0 0 10.245-2.745 7.5 7.5 0 0 0-2.745-10.245L294.5 211.5l16.463-9.505a7.5 7.5 0 0 0 2.745-10.245z" transform="matrix(.1007 .03147 -.03147 .1007 118.313 198.234)"/><path d="M415.5 284c-12.958 0-23.5 10.542-23.5 23.5 0 10.336 6.71 19.128 16 22.266v9.734a7.5 7.5 0 0 0 15 0v-9.734c9.29-3.138 16-11.93 16-22.266 0-12.958-10.542-23.5-23.5-23.5zm0 32c-4.687 0-8.5-3.813-8.5-8.5s3.813-8.5 8.5-8.5 8.5 3.813 8.5 8.5-3.813 8.5-8.5 8.5z" transform="matrix(.1007 .03147 -.03147 .1007 118.313 198.234)"/></g><g id="L1_99" fill="#f5f5f5"><path d="m504.117 44.824-33.941-33.941A23.35 23.35 0 0 0 453.559 4a23.348 23.348 0 0 0-16.617 6.883l-203.029 203.03a7.505 7.505 0 0 0-1.89 3.179l-23.716 80.284a7.501 7.501 0 0 0 9.318 9.318l80.284-23.716a7.5 7.5 0 0 0 3.179-1.89l203.029-203.03A23.348 23.348 0 0 0 511 61.441a23.35 23.35 0 0 0-6.883-16.617zM295.784 265.177 278.106 247.5 451.5 74.106l17.678 17.678-173.394 173.393zM267.5 236.894l-17.677-17.677L423.216 45.822 440.894 63.5 267.5 236.894zm-24.666-3.453 38.725 38.725-54.96 16.235 16.235-54.96zM493.51 67.452l-13.726 13.726-45.962-45.962 13.726-13.726c3.315-3.315 8.707-3.314 12.021 0l33.941 33.941c3.314 3.314 3.314 8.706 0 12.021zM116.803 326.197a7.5 7.5 0 0 0-10.606 0l-56 56a7.5 7.5 0 0 0 0 10.606l56 56c1.464 1.464 3.384 2.197 5.303 2.197s3.839-.732 5.303-2.197a7.5 7.5 0 0 0 0-10.606L66.106 387.5l50.697-50.697a7.5 7.5 0 0 0 0-10.606zM202.197 448.803c1.464 1.464 3.384 2.197 5.303 2.197s3.839-.732 5.303-2.197l56-56a7.5 7.5 0 0 0 0-10.606l-56-56a7.5 7.5 0 0 0-10.606 0 7.5 7.5 0 0 0 0 10.606l50.697 50.697-50.697 50.697a7.5 7.5 0 0 0 0 10.606z" transform="rotate(7.128 -776.713 1909.588) scale(.12238)"/><path d="M311.5 300a7.5 7.5 0 0 0-7.5 7.5v160c0 13.509-10.991 24.5-24.5 24.5h-240C25.991 492 15 481.009 15 467.5v-160c0-13.509 10.991-24.5 24.5-24.5h144a7.5 7.5 0 0 0 0-15h-144C17.72 268 0 285.72 0 307.5v160C0 489.28 17.72 507 39.5 507h240c21.78 0 39.5-17.72 39.5-39.5v-160a7.5 7.5 0 0 0-7.5-7.5z" transform="rotate(7.128 -776.713 1909.588) scale(.12238)"/><path d="M122.2 406.2a7.528 7.528 0 0 0-2.2 5.3c0 1.97.8 3.91 2.2 5.3 1.39 1.4 3.33 2.2 5.3 2.2 1.97 0 3.91-.8 5.3-2.2 1.4-1.39 2.2-3.33 2.2-5.3 0-1.97-.8-3.91-2.2-5.3a7.528 7.528 0 0 0-5.3-2.2c-1.97 0-3.91.8-5.3 2.2zM184 411.5c0 1.97.8 3.91 2.2 5.3 1.39 1.4 3.33 2.2 5.3 2.2 1.97 0 3.91-.8 5.3-2.2 1.4-1.39 2.2-3.33 2.2-5.3 0-1.97-.8-3.91-2.2-5.3a7.528 7.528 0 0 0-5.3-2.2c-1.97 0-3.91.8-5.3 2.2a7.528 7.528 0 0 0-2.2 5.3zM154.2 406.2a7.528 7.528 0 0 0-2.2 5.3c0 1.97.8 3.91 2.2 5.3 1.39 1.4 3.33 2.2 5.3 2.2 1.97 0 3.91-.8 5.3-2.2 1.4-1.39 2.2-3.33 2.2-5.3 0-1.97-.8-3.91-2.2-5.3a7.528 7.528 0 0 0-5.3-2.2c-1.97 0-3.91.8-5.3 2.2z" transform="rotate(7.128 -776.713 1909.588) scale(.12238)"/></g><g id="L1_100" fill="#f0f0f0"><path d="M343.5 292h-176c-21.78 0-39.5 17.72-39.5 39.5v96c0 21.78 17.72 39.5 39.5 39.5h176c21.78 0 39.5-17.72 39.5-39.5v-96c0-21.78-17.72-39.5-39.5-39.5zM368 427.5c0 13.509-10.991 24.5-24.5 24.5h-176c-13.509 0-24.5-10.991-24.5-24.5v-96c0-13.509 10.991-24.5 24.5-24.5h176c13.509 0 24.5 10.991 24.5 24.5v96z" transform="matrix(.12964 -.03618 .03618 .12964 -36.367 234.12)"/><path d="M220.803 334.197a7.5 7.5 0 0 0-10.606 0l-40 40a7.5 7.5 0 0 0 0 10.606l40 40c1.464 1.464 3.384 2.197 5.303 2.197s3.839-.732 5.303-2.197a7.5 7.5 0 0 0 0-10.606L186.106 379.5l34.697-34.697a7.5 7.5 0 0 0 0-10.606zM300.803 334.197a7.5 7.5 0 0 0-10.606 0 7.5 7.5 0 0 0 0 10.606l34.697 34.697-34.697 34.697A7.5 7.5 0 0 0 295.5 427a7.474 7.474 0 0 0 5.303-2.197l40-40a7.5 7.5 0 0 0 0-10.606l-40-40zM255.5 388c-1.97 0-3.91.8-5.3 2.2a7.528 7.528 0 0 0-2.2 5.3c0 1.97.8 3.91 2.2 5.3 1.39 1.4 3.33 2.2 5.3 2.2 1.97 0 3.91-.8 5.3-2.2 1.4-1.39 2.2-3.33 2.2-5.3a7.51 7.51 0 0 0-7.5-7.5zM279.5 388c-1.97 0-3.91.8-5.3 2.2a7.528 7.528 0 0 0-2.2 5.3c0 1.97.8 3.91 2.2 5.3 1.39 1.4 3.33 2.2 5.3 2.2 1.97 0 3.91-.8 5.3-2.2 1.4-1.39 2.2-3.33 2.2-5.3 0-1.97-.8-3.91-2.2-5.3a7.528 7.528 0 0 0-5.3-2.2zM231.5 388c-1.97 0-3.91.8-5.3 2.2a7.528 7.528 0 0 0-2.2 5.3c0 1.97.8 3.91 2.2 5.3 1.39 1.4 3.33 2.2 5.3 2.2 1.97 0 3.91-.8 5.3-2.2 1.4-1.39 2.2-3.33 2.2-5.3a7.51 7.51 0 0 0-7.5-7.5z" transform="matrix(.12964 -.03618 .03618 .12964 -36.367 234.12)"/><path d="M493.609 207.138c-9.949-13.301-23.718-23.639-39.172-29.504-2.354-26.829-14.217-51.7-33.736-70.504C399.864 87.055 372.447 76 343.5 76c-9.62 0-19.168 1.238-28.447 3.684C289.97 56.639 257.631 44 223.5 44c-27.572 0-54.102 8.246-76.719 23.846-20.784 14.335-37.015 33.94-47.164 56.907C43.39 130.734 0 178.501 0 235.5c0 28.288 10.609 55.263 29.874 75.957 19.163 20.585 45.109 33.092 73.059 35.218a7.501 7.501 0 0 0 1.137-14.957c-24.179-1.839-46.63-12.665-63.217-30.482C24.181 283.328 15 259.982 15 235.5c0-50.68 39.642-92.925 90.248-96.176a7.5 7.5 0 0 0 6.479-4.688c8.871-22.075 23.938-40.9 43.571-54.443C175.399 66.329 198.983 59 223.5 59c31.649 0 61.569 12.227 84.248 34.427a7.506 7.506 0 0 0 7.444 1.812A96.51 96.51 0 0 1 343.5 91c51.814 0 94.107 40.591 96.284 92.409a7.501 7.501 0 0 0 5.267 6.847C475.525 199.729 496 227.556 496 259.5c0 18.1-6.707 35.429-18.885 48.797-12.099 13.281-28.562 21.568-46.356 23.335a7.589 7.589 0 0 0-1.69.367h-21.571a7.5 7.5 0 0 0 0 15H431.5c1.15 0 2.24-.259 3.214-.722 20.538-2.631 39.452-12.47 53.49-27.879C502.904 302.262 511 281.345 511 259.5c0-19.045-6.014-37.151-17.391-52.362z" transform="matrix(.12964 -.03618 .03618 .12964 -36.367 234.12)"/><path d="M62.985 181.923a7.5 7.5 0 0 0-10.592.559C39.243 197.099 32 215.927 32 235.5c0 15.741 4.665 31.01 13.49 44.154a7.49 7.49 0 0 0 6.233 3.32 7.5 7.5 0 0 0 6.22-11.681C50.784 260.63 47 248.252 47 235.5c0-15.862 5.875-31.127 16.544-42.985a7.5 7.5 0 0 0-.559-10.592zM275.105 107.646a7.467 7.467 0 0 0 4.385 1.42 7.502 7.502 0 0 0 4.398-13.581C266.24 82.738 245.357 76 223.5 76a7.5 7.5 0 0 0 0 15c18.684 0 36.529 5.756 51.605 16.646zM102.677 156.609a79.126 79.126 0 0 0-17.68 4.046 7.5 7.5 0 0 0 5.004 14.141 64.08 64.08 0 0 1 14.324-3.277 7.5 7.5 0 0 0 6.63-8.279 7.497 7.497 0 0 0-8.278-6.631zM357.848 124.593a7.504 7.504 0 0 0 8.971-5.661 7.5 7.5 0 0 0-5.661-8.97A80.172 80.172 0 0 0 343.5 108a7.5 7.5 0 0 0 0 15c4.849 0 9.676.536 14.348 1.593zM427.793 217.456a7.5 7.5 0 0 0 10.223-2.826 7.5 7.5 0 0 0-2.827-10.223c-7.401-4.195-12.034-11.778-12.391-20.284-.958-22.817-11.629-44.116-29.277-58.436a7.499 7.499 0 0 0-10.549 1.098 7.499 7.499 0 0 0 1.098 10.549c14.31 11.612 22.963 28.895 23.742 47.418.576 13.712 8.045 25.938 19.981 32.704z" transform="matrix(.12964 -.03618 .03618 .12964 -36.367 234.12)"/></g><g id="L1_101" fill="#f2f2f2"><path d="M487.5 51.999h-464c-12.958 0-23.5 10.542-23.5 23.5v304c0 12.958 10.542 23.5 23.5 23.5h158.057l-11.714 41H135.5a7.5 7.5 0 0 0 0 15h39.976l.028.002.024-.002h159.944l.024.002.028-.002H375.5a7.5 7.5 0 0 0 0-15h-34.343l-11.714-41H487.5c12.958 0 23.5-10.542 23.5-23.5v-304c0-12.958-10.542-23.5-23.5-23.5zm-161.943 392H185.443l11.714-41h116.686l11.714 41zM496 379.499c0 4.687-3.813 8.5-8.5 8.5h-464c-4.687 0-8.5-3.813-8.5-8.5v-304c0-4.687 3.813-8.5 8.5-8.5h464c4.687 0 8.5 3.813 8.5 8.5v304z" transform="matrix(.11753 .014 -.014 .11753 -25.455 45.395)"/><path d="M471.5 83.999h-432a7.5 7.5 0 0 0-7.5 7.5v272a7.5 7.5 0 0 0 7.5 7.5h432a7.5 7.5 0 0 0 7.5-7.5v-272a7.5 7.5 0 0 0-7.5-7.5zm-7.5 15v49H47v-49h417zm-417 64h105v193H47v-193zm120 193v-193h297v193H167z" transform="matrix(.11753 .014 -.014 .11753 -25.455 45.395)"/><path d="M71.5 130.999h24a7.5 7.5 0 0 0 0-15h-24a7.5 7.5 0 0 0 0 15zM127.5 130.999h24a7.5 7.5 0 0 0 0-15h-24a7.5 7.5 0 0 0 0 15zM183.5 130.999h24a7.5 7.5 0 0 0 0-15h-24a7.5 7.5 0 0 0 0 15zM239.5 130.999h24a7.5 7.5 0 0 0 0-15h-24a7.5 7.5 0 0 0 0 15zM295.5 130.999h80a7.5 7.5 0 0 0 0-15h-80a7.5 7.5 0 0 0 0 15zM439.5 130.999c1.97 0 3.91-.8 5.3-2.2 1.4-1.4 2.2-3.33 2.2-5.3a7.51 7.51 0 0 0-7.5-7.5 7.51 7.51 0 0 0-7.5 7.5c0 1.97.8 3.91 2.2 5.3 1.39 1.4 3.33 2.2 5.3 2.2zM407.5 130.999c1.97 0 3.91-.8 5.3-2.2 1.4-1.39 2.2-3.33 2.2-5.3a7.51 7.51 0 0 0-7.5-7.5 7.51 7.51 0 0 0-7.5 7.5c0 1.97.8 3.91 2.2 5.3 1.39 1.4 3.33 2.2 5.3 2.2zM71.5 194.999h56a7.5 7.5 0 0 0 0-15h-56a7.5 7.5 0 0 0 0 15zM191.5 194.999h56a7.5 7.5 0 0 0 0-15h-56a7.5 7.5 0 0 0 0 15zM279.5 194.999h32a7.5 7.5 0 0 0 0-15h-32a7.5 7.5 0 0 0 0 15zM191.5 226.999h56a7.5 7.5 0 0 0 0-15h-56a7.5 7.5 0 0 0 0 15zM351.5 243.999h-136a7.5 7.5 0 0 0 0 15h136a7.5 7.5 0 0 0 0-15zM407.5 243.999h-24a7.5 7.5 0 0 0 0 15h24a7.5 7.5 0 0 0 0-15zM311.5 307.999h-32a7.5 7.5 0 0 0 0 15h32a7.5 7.5 0 0 0 0-15zM279.5 226.999h32a7.5 7.5 0 0 0 0-15h-32a7.5 7.5 0 0 0 0 15zM247.5 275.999h-56a7.5 7.5 0 0 0 0 15h56a7.5 7.5 0 0 0 0-15zM311.5 275.999h-32a7.5 7.5 0 0 0 0 15h32a7.5 7.5 0 0 0 0-15zM127.5 275.999h-56a7.5 7.5 0 0 0 0 15h56a7.5 7.5 0 0 0 0-15zM127.5 211.999h-32a7.5 7.5 0 0 0 0 15h32a7.5 7.5 0 0 0 0-15zM127.5 243.999h-32a7.5 7.5 0 0 0 0 15h32a7.5 7.5 0 0 0 0-15zM127.5 307.999h-32a7.5 7.5 0 0 0 0 15h32a7.5 7.5 0 0 0 0-15z" transform="matrix(.11753 .014 -.014 .11753 -25.455 45.395)"/></g><g id="L1_102" fill="#f5f5f5"><path d="M39.5 103a7.51 7.51 0 0 0 7.5-7.5c0-1.97-.8-3.91-2.2-5.3a7.528 7.528 0 0 0-5.3-2.2c-1.97 0-3.91.8-5.3 2.2-1.4 1.39-2.2 3.33-2.2 5.3s.8 3.91 2.2 5.3c1.39 1.4 3.33 2.2 5.3 2.2zM63.5 103c1.97 0 3.91-.8 5.3-2.2 1.4-1.39 2.2-3.33 2.2-5.3s-.8-3.91-2.2-5.3a7.528 7.528 0 0 0-5.3-2.2c-1.97 0-3.91.8-5.3 2.2-1.4 1.39-2.2 3.33-2.2 5.3s.8 3.91 2.2 5.3c1.39 1.4 3.33 2.2 5.3 2.2zM87.5 103c1.97 0 3.91-.8 5.3-2.2 1.4-1.39 2.2-3.33 2.2-5.3s-.8-3.91-2.2-5.3a7.528 7.528 0 0 0-5.3-2.2 7.51 7.51 0 0 0-7.5 7.5c0 1.97.8 3.91 2.2 5.3 1.39 1.4 3.33 2.2 5.3 2.2zM119.5 103h304a7.5 7.5 0 0 0 0-15h-304a7.5 7.5 0 0 0 0 15zM455.5 103h16a7.5 7.5 0 0 0 0-15h-16a7.5 7.5 0 0 0 0 15zM223.5 168h-160c-8.547 0-15.5 6.953-15.5 15.5v32c0 8.547 6.953 15.5 15.5 15.5h160c8.547 0 15.5-6.953 15.5-15.5v-32c0-8.547-6.953-15.5-15.5-15.5zm.5 47.5a.5.5 0 0 1-.5.5h-160a.5.5 0 0 1-.5-.5v-32a.5.5 0 0 1 .5-.5h160a.5.5 0 0 1 .5.5v32zM455.5 192h-49.734c-3.138-9.29-11.93-16-22.266-16s-19.128 6.71-22.266 16H343.5a7.5 7.5 0 0 0 0 15h17.734c3.138 9.29 11.93 16 22.266 16s19.128-6.71 22.266-16H455.5a7.5 7.5 0 0 0 0-15zm-72 16c-4.687 0-8.5-3.813-8.5-8.5s3.813-8.5 8.5-8.5 8.5 3.813 8.5 8.5-3.813 8.5-8.5 8.5zM287.5 168c-17.369 0-31.5 14.131-31.5 31.5s14.131 31.5 31.5 31.5 31.5-14.131 31.5-31.5-14.131-31.5-31.5-31.5zm0 48c-9.098 0-16.5-7.402-16.5-16.5s7.402-16.5 16.5-16.5 16.5 7.402 16.5 16.5-7.402 16.5-16.5 16.5zM223.5 256h-160c-8.547 0-15.5 6.953-15.5 15.5v32c0 8.547 6.953 15.5 15.5 15.5h160c8.547 0 15.5-6.953 15.5-15.5v-32c0-8.547-6.953-15.5-15.5-15.5zm.5 47.5a.5.5 0 0 1-.5.5h-160a.5.5 0 0 1-.5-.5v-32a.5.5 0 0 1 .5-.5h160a.5.5 0 0 1 .5.5v32zM455.5 280h-9.738c-3.138-9.29-11.93-16-22.266-16s-19.128 6.71-22.266 16H343.5a7.5 7.5 0 0 0 0 15h57.731c3.138 9.29 11.93 16 22.266 16s19.128-6.71 22.266-16h9.738a7.5 7.5 0 1 0-.001-15zm-32.003 16c-4.687 0-8.5-3.813-8.5-8.5s3.813-8.5 8.5-8.5 8.5 3.813 8.5 8.5-3.813 8.5-8.5 8.5zM287.5 256c-17.369 0-31.5 14.131-31.5 31.5s14.131 31.5 31.5 31.5 31.5-14.131 31.5-31.5-14.131-31.5-31.5-31.5zm0 48c-9.098 0-16.5-7.402-16.5-16.5s7.402-16.5 16.5-16.5 16.5 7.402 16.5 16.5-7.402 16.5-16.5 16.5zM223.5 344h-160c-8.547 0-15.5 6.953-15.5 15.5v32c0 8.547 6.953 15.5 15.5 15.5h160c8.547 0 15.5-6.953 15.5-15.5v-32c0-8.547-6.953-15.5-15.5-15.5zm.5 47.5a.5.5 0 0 1-.5.5h-160a.5.5 0 0 1-.5-.5v-32a.5.5 0 0 1 .5-.5h160a.5.5 0 0 1 .5.5v32zM455.5 368h-41.738c-3.138-9.29-11.93-16-22.266-16s-19.128 6.71-22.266 16H343.5a7.5 7.5 0 0 0 0 15h25.731c3.138 9.29 11.93 16 22.266 16s19.128-6.71 22.266-16H455.5a7.5 7.5 0 0 0 0-15zm-64.003 16c-4.687 0-8.5-3.813-8.5-8.5s3.813-8.5 8.5-8.5 8.5 3.813 8.5 8.5-3.813 8.5-8.5 8.5zM287.5 344c-17.369 0-31.5 14.131-31.5 31.5s14.131 31.5 31.5 31.5 31.5-14.131 31.5-31.5-14.131-31.5-31.5-31.5zm0 48c-9.098 0-16.5-7.402-16.5-16.5s7.402-16.5 16.5-16.5 16.5 7.402 16.5 16.5-7.402 16.5-16.5 16.5z" transform="matrix(.09237 .02717 -.02717 .09237 55.34 146.457)"/><path d="M471.5 56h-432C17.72 56 0 73.72 0 95.5v320C0 437.28 17.72 455 39.5 455h432c21.78 0 39.5-17.72 39.5-39.5v-320c0-21.78-17.72-39.5-39.5-39.5zm-432 15h432c13.509 0 24.5 10.991 24.5 24.5V120H15V95.5C15 81.991 25.991 71 39.5 71zm432 369h-432C25.991 440 15 429.009 15 415.5V135h481v280.5c0 13.509-10.991 24.5-24.5 24.5z" transform="matrix(.09237 .02717 -.02717 .09237 55.34 146.457)"/></g><g id="L1_103" fill="#f5f5f5"><path d="M27.557 12c-3.859 0-7 3.141-7 7s3.141 7 7 7 7-3.141 7-7-3.141-7-7-7zm0 12c-2.757 0-5-2.243-5-5s2.243-5 5-5 5 2.243 5 5-2.243 5-5 5z" transform="translate(123.853 61.897) scale(1.21067)"/><path d="M40.94 5.617A19.052 19.052 0 0 0 27.38 0a19.05 19.05 0 0 0-13.56 5.617c-6.703 6.702-7.536 19.312-1.804 26.952L27.38 54.757 42.721 32.6c5.755-7.671 4.922-20.281-1.781-26.983zm.159 25.814L27.38 51.243 13.639 31.4C8.44 24.468 9.185 13.08 15.235 7.031 18.479 3.787 22.792 2 27.38 2s8.901 1.787 12.146 5.031c6.05 6.049 6.795 17.437 1.573 24.4z" transform="translate(123.853 61.897) scale(1.21067)"/></g><g id="L1_104" fill="#ededed"><path d="M39.5 103c1.97 0 3.91-.8 5.3-2.2 1.4-1.39 2.2-3.33 2.2-5.3s-.8-3.91-2.2-5.3c-1.39-1.4-3.32-2.2-5.3-2.2a7.51 7.51 0 0 0-7.5 7.5c0 1.97.8 3.91 2.2 5.3 1.39 1.4 3.33 2.2 5.3 2.2zM63.5 103a7.51 7.51 0 0 0 7.5-7.5c0-1.97-.8-3.91-2.2-5.3a7.528 7.528 0 0 0-5.3-2.2c-1.97 0-3.91.8-5.3 2.2-1.4 1.39-2.2 3.33-2.2 5.3s.8 3.91 2.2 5.3c1.39 1.4 3.33 2.2 5.3 2.2zM87.5 103c1.97 0 3.91-.8 5.3-2.2 1.4-1.39 2.2-3.33 2.2-5.3s-.8-3.91-2.2-5.3a7.528 7.528 0 0 0-5.3-2.2c-1.97 0-3.91.8-5.3 2.2-1.4 1.39-2.2 3.33-2.2 5.3s.8 3.91 2.2 5.3c1.39 1.4 3.33 2.2 5.3 2.2zM119.5 103h304a7.5 7.5 0 0 0 0-15h-304a7.5 7.5 0 0 0 0 15zM455.5 103h16a7.5 7.5 0 0 0 0-15h-16a7.5 7.5 0 0 0 0 15zM439.5 168h-144c-12.958 0-23.5 10.542-23.5 23.5v.5h-8.5c-12.958 0-23.5 10.542-23.5 23.5V280h-17v-24.5c0-12.958-10.542-23.5-23.5-23.5h-128C58.542 232 48 242.542 48 255.5v64c0 12.958 10.542 23.5 23.5 23.5h128c12.958 0 23.5-10.542 23.5-23.5V295h17v64.5c0 12.958 10.542 23.5 23.5 23.5h8.5v.5c0 12.958 10.542 23.5 23.5 23.5h144c12.958 0 23.5-10.542 23.5-23.5v-16c0-12.958-10.542-23.5-23.5-23.5h-144c-12.958 0-23.5 10.542-23.5 23.5v.5h-8.5c-4.687 0-8.5-3.813-8.5-8.5V295h17v.5c0 12.958 10.542 23.5 23.5 23.5h144c12.958 0 23.5-10.542 23.5-23.5v-16c0-12.958-10.542-23.5-23.5-23.5h-144c-12.958 0-23.5 10.542-23.5 23.5v.5h-17v-64.5c0-4.687 3.813-8.5 8.5-8.5h8.5v.5c0 12.958 10.542 23.5 23.5 23.5h144c12.958 0 23.5-10.542 23.5-23.5v-16c0-12.958-10.542-23.5-23.5-23.5zM208 319.5c0 4.687-3.813 8.5-8.5 8.5h-128c-4.687 0-8.5-3.813-8.5-8.5v-64c0-4.687 3.813-8.5 8.5-8.5h128c4.687 0 8.5 3.813 8.5 8.5v64zm79 48c0-4.687 3.813-8.5 8.5-8.5h144c4.687 0 8.5 3.813 8.5 8.5v16c0 4.687-3.813 8.5-8.5 8.5h-144c-4.687 0-8.5-3.813-8.5-8.5v-16zm0-88c0-4.687 3.813-8.5 8.5-8.5h144c4.687 0 8.5 3.813 8.5 8.5v16c0 4.687-3.813 8.5-8.5 8.5h-144c-4.687 0-8.5-3.813-8.5-8.5v-16zm161-72c0 4.687-3.813 8.5-8.5 8.5h-144c-4.687 0-8.5-3.813-8.5-8.5v-16c0-4.687 3.813-8.5 8.5-8.5h144c4.687 0 8.5 3.813 8.5 8.5v16z" transform="matrix(.07404 0 0 .07404 139.083 259.083)"/><path d="M471.5 56h-432C17.72 56 0 73.72 0 95.5v320C0 437.28 17.72 455 39.5 455h432c21.78 0 39.5-17.72 39.5-39.5v-320c0-21.78-17.72-39.5-39.5-39.5zm-432 15h432c13.509 0 24.5 10.991 24.5 24.5V120H15V95.5C15 81.991 25.991 71 39.5 71zm432 369h-432C25.991 440 15 429.009 15 415.5V135h481v280.5c0 13.509-10.991 24.5-24.5 24.5z" transform="matrix(.07404 0 0 .07404 139.083 259.083)"/></g><g id="L1_105" fill="#f2f2f2"><path d="M38.976 5.122h-.415v-.707c0-1.492-1.212-2.706-2.635-2.706h-.004L11.098 0A2.71 2.71 0 0 0 8.39 2.707v2.415h-.414c-1.654 0-3 1.346-3 3v3.829c0 1.654 1.346 3 3 3h.094l2.904 29.293a2.71 2.71 0 0 0 2.708 2.707h19.634c.373 0 .729-.076 1.053-.212.971-.407 1.653-1.352 1.65-2.397l2.909-29.392h.049c1.654 0 3-1.346 3-3V8.122a3.005 3.005 0 0 0-3.001-3zM10.39 2.707c0-.39.317-.707.639-.709l24.825 1.709c.39 0 .708.317.708.708v.707H10.39V2.707zm25.713 20.197-5.369.958a9.447 9.447 0 0 0-7.225-3.326 9.445 9.445 0 0 0-7.226 3.327l-5.389-.96-.811-7.952h26.832l-.812 7.953zm-.175 2.063-.776 7.856-5.252-.967-.372.494c-1.442 1.917-3.636 3.017-6.018 3.017-2.383 0-4.577-1.1-6.019-3.017l-.372-.493-5.27.967-.778-7.857 6.05 1.076.37-.49c1.442-1.917 3.636-3.017 6.019-3.017 2.382 0 4.576 1.1 6.018 3.017l.37.491 6.03-1.077zm-2.613 19.984H13.681a.657.657 0 0 1-.272-.058c-.253-.114-.436-.386-.44-.748l-.013-.13-.897-9.198 4.226-.775a9.446 9.446 0 0 0 7.224 3.324 9.448 9.448 0 0 0 7.223-3.323l4.207.774-.916 9.427a.718.718 0 0 1-.708.707zm6.661-33c0 .552-.449 1-1 1h-31c-.551 0-1-.448-1-1V8.122c0-.552.449-1 1-1h31c.551 0 1 .448 1 1v3.829z" transform="translate(187.322 27.133) scale(.88084)"/><path d="M23.476 24c-3.033 0-5.5 2.243-5.5 5s2.467 5 5.5 5 5.5-2.243 5.5-5-2.468-5-5.5-5zm0 8c-1.93 0-3.5-1.346-3.5-3s1.57-3 3.5-3 3.5 1.346 3.5 3-1.571 3-3.5 3z" transform="translate(187.322 27.133) scale(.88084)"/></g></defs><g fi:class="KUsePattern"><pattern id="pattern_L1_87" width="350" height="350" patternUnits="userSpaceOnUse"><use xlink:href="#L1_87" x="-350" y="-350"/><use xlink:href="#L1_87" y="-350"/><use xlink:href="#L1_87" x="350" y="-350"/><use xlink:href="#L1_87" x="-350"/><use xlink:href="#L1_87"/><use xlink:href="#L1_87" x="350"/><use xlink:href="#L1_87" x="-350" y="350"/><use xlink:href="#L1_87" y="350"/><use xlink:href="#L1_87" x="350" y="350"/></pattern><rect width="100%" height="100%" fill="url('#pattern_L1_87')"/></g><g fi:class="KUsePattern"><pattern id="pattern_L1_88" width="350" height="350" patternUnits="userSpaceOnUse"><use xlink:href="#L1_88" x="-350" y="-350"/><use xlink:href="#L1_88" y="-350"/><use xlink:href="#L1_88" x="350" y="-350"/><use xlink:href="#L1_88" x="-350"/><use xlink:href="#L1_88"/><use xlink:href="#L1_88" x="350"/><use xlink:href="#L1_88" x="-350" y="350"/><use xlink:href="#L1_88" y="350"/><use xlink:href="#L1_88" x="350" y="350"/></pattern><rect width="100%" height="100%" fill="url('#pattern_L1_88')"/></g><g fi:class="KUsePattern"><pattern id="pattern_L1_89" width="350" height="350" patternUnits="userSpaceOnUse"><use xlink:href="#L1_89" x="-350" y="-350"/><use xlink:href="#L1_89" y="-350"/><use xlink:href="#L1_89" x="350" y="-350"/><use xlink:href="#L1_89" x="-350"/><use xlink:href="#L1_89"/><use xlink:href="#L1_89" x="350"/><use xlink:href="#L1_89" x="-350" y="350"/><use xlink:href="#L1_89" y="350"/><use xlink:href="#L1_89" x="350" y="350"/></pattern><rect width="100%" height="100%" fill="url('#pattern_L1_89')"/></g><g fi:class="KUsePattern"><pattern id="pattern_L1_90" width="350" height="350" patternUnits="userSpaceOnUse"><use xlink:href="#L1_90" x="-350" y="-350"/><use xlink:href="#L1_90" y="-350"/><use xlink:href="#L1_90" x="350" y="-350"/><use xlink:href="#L1_90" x="-350"/><use xlink:href="#L1_90"/><use xlink:href="#L1_90" x="350"/><use xlink:href="#L1_90" x="-350" y="350"/><use xlink:href="#L1_90" y="350"/><use xlink:href="#L1_90" x="350" y="350"/></pattern><rect width="100%" height="100%" fill="url('#pattern_L1_90')"/></g><g fi:class="KUsePattern"><pattern id="pattern_L1_91" width="350" height="350" patternUnits="userSpaceOnUse"><use xlink:href="#L1_91" x="-350" y="-350"/><use xlink:href="#L1_91" y="-350"/><use xlink:href="#L1_91" x="350" y="-350"/><use xlink:href="#L1_91" x="-350"/><use xlink:href="#L1_91"/><use xlink:href="#L1_91" x="350"/><use xlink:href="#L1_91" x="-350" y="350"/><use xlink:href="#L1_91" y="350"/><use xlink:href="#L1_91" x="350" y="350"/></pattern><rect width="100%" height="100%" fill="url('#pattern_L1_91')"/></g><g fi:class="KUsePattern"><pattern id="pattern_L1_92" width="350" height="350" patternUnits="userSpaceOnUse"><use xlink:href="#L1_92" x="-350" y="-350"/><use xlink:href="#L1_92" y="-350"/><use xlink:href="#L1_92" x="350" y="-350"/><use xlink:href="#L1_92" x="-350"/><use xlink:href="#L1_92"/><use xlink:href="#L1_92" x="350"/><use xlink:href="#L1_92" x="-350" y="350"/><use xlink:href="#L1_92" y="350"/><use xlink:href="#L1_92" x="350" y="350"/></pattern><rect width="100%" height="100%" fill="url('#pattern_L1_92')"/></g><g fi:class="KUsePattern"><pattern id="pattern_L1_93" width="350" height="350" patternUnits="userSpaceOnUse"><use xlink:href="#L1_93" x="-350" y="-350"/><use xlink:href="#L1_93" y="-350"/><use xlink:href="#L1_93" x="350" y="-350"/><use xlink:href="#L1_93" x="-350"/><use xlink:href="#L1_93"/><use xlink:href="#L1_93" x="350"/><use xlink:href="#L1_93" x="-350" y="350"/><use xlink:href="#L1_93" y="350"/><use xlink:href="#L1_93" x="350" y="350"/></pattern><rect width="100%" height="100%" fill="url('#pattern_L1_93')"/></g><g fi:class="KUsePattern"><pattern id="pattern_L1_94" width="350" height="350" patternUnits="userSpaceOnUse"><use xlink:href="#L1_94" x="-350" y="-350"/><use xlink:href="#L1_94" y="-350"/><use xlink:href="#L1_94" x="350" y="-350"/><use xlink:href="#L1_94" x="-350"/><use xlink:href="#L1_94"/><use xlink:href="#L1_94" x="350"/><use xlink:href="#L1_94" x="-350" y="350"/><use xlink:href="#L1_94" y="350"/><use xlink:href="#L1_94" x="350" y="350"/></pattern><rect width="100%" height="100%" fill="url('#pattern_L1_94')"/></g><g fi:class="KUsePattern"><pattern id="pattern_L1_95" width="350" height="350" patternUnits="userSpaceOnUse"><use xlink:href="#L1_95" x="-350" y="-350"/><use xlink:href="#L1_95" y="-350"/><use xlink:href="#L1_95" x="350" y="-350"/><use xlink:href="#L1_95" x="-350"/><use xlink:href="#L1_95"/><use xlink:href="#L1_95" x="350"/><use xlink:href="#L1_95" x="-350" y="350"/><use xlink:href="#L1_95" y="350"/><use xlink:href="#L1_95" x="350" y="350"/></pattern><rect width="100%" height="100%" fill="url('#pattern_L1_95')"/></g><g fi:class="KUsePattern"><pattern id="pattern_L1_97" width="350" height="350" patternUnits="userSpaceOnUse"><use xlink:href="#L1_97" x="-350" y="-350"/><use xlink:href="#L1_97" y="-350"/><use xlink:href="#L1_97" x="350" y="-350"/><use xlink:href="#L1_97" x="-350"/><use xlink:href="#L1_97"/><use xlink:href="#L1_97" x="350"/><use xlink:href="#L1_97" x="-350" y="350"/><use xlink:href="#L1_97" y="350"/><use xlink:href="#L1_97" x="350" y="350"/></pattern><rect width="100%" height="100%" fill="url('#pattern_L1_97')"/></g><g fi:class="KUsePattern"><pattern id="pattern_L1_98" width="350" height="350" patternUnits="userSpaceOnUse"><use xlink:href="#L1_98" x="-350" y="-350"/><use xlink:href="#L1_98" y="-350"/><use xlink:href="#L1_98" x="350" y="-350"/><use xlink:href="#L1_98" x="-350"/><use xlink:href="#L1_98"/><use xlink:href="#L1_98" x="350"/><use xlink:href="#L1_98" x="-350" y="350"/><use xlink:href="#L1_98" y="350"/><use xlink:href="#L1_98" x="350" y="350"/></pattern><rect width="100%" height="100%" fill="url('#pattern_L1_98')"/></g><g fi:class="KUsePattern"><pattern id="pattern_L1_99" width="350" height="350" patternUnits="userSpaceOnUse"><use xlink:href="#L1_99" x="-350" y="-350"/><use xlink:href="#L1_99" y="-350"/><use xlink:href="#L1_99" x="350" y="-350"/><use xlink:href="#L1_99" x="-350"/><use xlink:href="#L1_99"/><use xlink:href="#L1_99" x="350"/><use xlink:href="#L1_99" x="-350" y="350"/><use xlink:href="#L1_99" y="350"/><use xlink:href="#L1_99" x="350" y="350"/></pattern><rect width="100%" height="100%" fill="url('#pattern_L1_99')"/></g><g fi:class="KUsePattern"><pattern id="pattern_L1_100" width="350" height="350" patternUnits="userSpaceOnUse"><use xlink:href="#L1_100" x="-350" y="-350"/><use xlink:href="#L1_100" y="-350"/><use xlink:href="#L1_100" x="350" y="-350"/><use xlink:href="#L1_100" x="-350"/><use xlink:href="#L1_100"/><use xlink:href="#L1_100" x="350"/><use xlink:href="#L1_100" x="-350" y="350"/><use xlink:href="#L1_100" y="350"/><use xlink:href="#L1_100" x="350" y="350"/></pattern><rect width="100%" height="100%" fill="url('#pattern_L1_100')"/></g><g fi:class="KUsePattern"><pattern id="pattern_L1_101" width="350" height="350" patternUnits="userSpaceOnUse"><use xlink:href="#L1_101" x="-350" y="-350"/><use xlink:href="#L1_101" y="-350"/><use xlink:href="#L1_101" x="350" y="-350"/><use xlink:href="#L1_101" x="-350"/><use xlink:href="#L1_101"/><use xlink:href="#L1_101" x="350"/><use xlink:href="#L1_101" x="-350" y="350"/><use xlink:href="#L1_101" y="350"/><use xlink:href="#L1_101" x="350" y="350"/></pattern><rect width="100%" height="100%" fill="url('#pattern_L1_101')"/></g><g fi:class="KUsePattern"><pattern id="pattern_L1_102" width="350" height="350" patternUnits="userSpaceOnUse"><use xlink:href="#L1_102" x="-350" y="-350"/><use xlink:href="#L1_102" y="-350"/><use xlink:href="#L1_102" x="350" y="-350"/><use xlink:href="#L1_102" x="-350"/><use xlink:href="#L1_102"/><use xlink:href="#L1_102" x="350"/><use xlink:href="#L1_102" x="-350" y="350"/><use xlink:href="#L1_102" y="350"/><use xlink:href="#L1_102" x="350" y="350"/></pattern><rect width="100%" height="100%" fill="url('#pattern_L1_102')"/></g><g fi:class="KUsePattern"><pattern id="pattern_L1_103" width="350" height="350" patternUnits="userSpaceOnUse"><use xlink:href="#L1_103" x="-350" y="-350"/><use xlink:href="#L1_103" y="-350"/><use xlink:href="#L1_103" x="350" y="-350"/><use xlink:href="#L1_103" x="-350"/><use xlink:href="#L1_103"/><use xlink:href="#L1_103" x="350"/><use xlink:href="#L1_103" x="-350" y="350"/><use xlink:href="#L1_103" y="350"/><use xlink:href="#L1_103" x="350" y="350"/></pattern><rect width="100%" height="100%" fill="url('#pattern_L1_103')"/></g><g fi:class="KUsePattern"><pattern id="pattern_L1_104" width="350" height="350" patternUnits="userSpaceOnUse"><use xlink:href="#L1_104" x="-350" y="-350"/><use xlink:href="#L1_104" y="-350"/><use xlink:href="#L1_104" x="350" y="-350"/><use xlink:href="#L1_104" x="-350"/><use xlink:href="#L1_104"/><use xlink:href="#L1_104" x="350"/><use xlink:href="#L1_104" x="-350" y="350"/><use xlink:href="#L1_104" y="350"/><use xlink:href="#L1_104" x="350" y="350"/></pattern><rect width="100%" height="100%" fill="url('#pattern_L1_104')"/></g><g fi:class="KUsePattern"><pattern id="pattern_L1_105" width="350" height="350" patternUnits="userSpaceOnUse"><use xlink:href="#L1_105" x="-350" y="-350"/><use xlink:href="#L1_105" y="-350"/><use xlink:href="#L1_105" x="350" y="-350"/><use xlink:href="#L1_105" x="-350"/><use xlink:href="#L1_105"/><use xlink:href="#L1_105" x="350"/><use xlink:href="#L1_105" x="-350" y="350"/><use xlink:href="#L1_105" y="350"/><use xlink:href="#L1_105" x="350" y="350"/></pattern><rect width="100%" height="100%" fill="url('#pattern_L1_105')"/></g></svg>