<svg width="1445" height="38" xmlns="http://www.w3.org/2000/svg" xmlns:xlink="http://www.w3.org/1999/xlink"><defs><filter x="-.8%" y="-7.4%" width="103.2%" height="126.5%" filterUnits="objectBoundingBox" id="filter-2"><feOffset dx="5" dy="4" in="SourceAlpha" result="shadowOffsetOuter1"/><feColorMatrix values="0 0 0 0 0 0 0 0 0 0 0 0 0 0 0 0 0 0 0.100118886 0" in="shadowOffsetOuter1"/></filter><filter x="-.8%" y="-7.4%" width="103.2%" height="126.5%" filterUnits="objectBoundingBox" id="filter-4"><feOffset dx="5" dy="4" in="SourceAlpha" result="shadowOffsetOuter1"/><feColorMatrix values="0 0 0 0 0 0 0 0 0 0 0 0 0 0 0 0 0 0 0.100118886 0" in="shadowOffsetOuter1"/></filter><filter x="-.8%" y="-7.4%" width="103.2%" height="126.5%" filterUnits="objectBoundingBox" id="filter-6"><feOffset dx="5" dy="4" in="SourceAlpha" result="shadowOffsetOuter1"/><feColorMatrix values="0 0 0 0 0 0 0 0 0 0 0 0 0 0 0 0 0 0 0.100118886 0" in="shadowOffsetOuter1"/></filter><filter x="-.8%" y="-7.4%" width="103.2%" height="126.5%" filterUnits="objectBoundingBox" id="filter-8"><feOffset dx="5" dy="4" in="SourceAlpha" result="shadowOffsetOuter1"/><feColorMatrix values="0 0 0 0 0 0 0 0 0 0 0 0 0 0 0 0 0 0 0.100118886 0" in="shadowOffsetOuter1"/></filter><filter x="-.8%" y="-7.4%" width="103.2%" height="126.5%" filterUnits="objectBoundingBox" id="filter-10"><feOffset dx="5" dy="4" in="SourceAlpha" result="shadowOffsetOuter1"/><feColorMatrix values="0 0 0 0 0 0 0 0 0 0 0 0 0 0 0 0 0 0 0.100118886 0" in="shadowOffsetOuter1"/></filter><path d="M310.365 0c-14.341 0-21.696 7.82-28.315 14.62-6.252 6.8-11.767 12.58-22.8 12.58-11.031 0-16.547-5.78-22.799-12.58C230.2 7.82 222.845 0 208.136 0c-14.342 0-21.696 7.82-28.315 14.62-6.252 6.8-11.768 12.58-22.8 12.58s-16.548-5.78-22.8-12.58C127.604 7.82 120.249 0 105.908 0 91.565 0 84.21 7.82 77.59 14.62 71.34 21.42 65.824 27.2 54.792 27.2s-16.548-5.78-22.8-12.58C25.374 7.82 18.02 0 3.678 0 1.471 0 0 1.36 0 3.4s1.47 3.4 3.677 3.4c11.032 0 16.548 5.78 22.8 12.58C33.096 26.18 40.45 34 54.792 34c14.341 0 21.696-7.82 28.315-14.62 6.252-6.8 11.768-12.58 22.8-12.58s16.548 5.78 22.799 12.58c6.62 6.8 13.974 14.62 28.315 14.62 14.342 0 21.696-7.82 28.316-14.62 6.251-6.8 11.767-12.58 22.799-12.58s16.548 5.78 22.8 12.58C237.553 26.18 244.908 34 259.25 34c14.341 0 21.696-7.82 28.315-14.62 6.251-6.8 11.767-12.58 22.8-12.58 2.206 0 3.677-1.36 3.677-3.4S312.572 0 310.365 0Z" id="path-1"/><path d="M616.748 0c-14.341 0-21.696 7.82-28.315 14.62-6.252 6.8-11.767 12.58-22.8 12.58-11.031 0-16.547-5.78-22.799-12.58C536.583 7.82 529.228 0 514.52 0c-14.342 0-21.696 7.82-28.315 14.62-6.252 6.8-11.768 12.58-22.8 12.58s-16.548-5.78-22.8-12.58C433.987 7.82 426.632 0 412.29 0c-14.342 0-21.697 7.82-28.316 14.62-6.251 6.8-11.767 12.58-22.8 12.58-11.031 0-16.547-5.78-22.798-12.58C331.756 7.82 324.402 0 310.06 0c-2.206 0-3.677 1.36-3.677 3.4s1.47 3.4 3.677 3.4c11.032 0 16.548 5.78 22.8 12.58 6.619 6.8 13.973 14.62 28.315 14.62 14.341 0 21.696-7.82 28.315-14.62 6.252-6.8 11.768-12.58 22.8-12.58s16.548 5.78 22.799 12.58c6.62 6.8 13.974 14.62 28.315 14.62 14.342 0 21.696-7.82 28.316-14.62 6.251-6.8 11.767-12.58 22.799-12.58s16.548 5.78 22.8 12.58c6.618 6.8 13.973 14.62 28.315 14.62 14.341 0 21.696-7.82 28.315-14.62 6.251-6.8 11.767-12.58 22.8-12.58 2.206 0 3.677-1.36 3.677-3.4S618.955 0 616.748 0Z" id="path-3"/><path d="M923.131 0c-14.341 0-21.696 7.82-28.315 14.62-6.252 6.8-11.768 12.58-22.8 12.58-11.031 0-16.547-5.78-22.799-12.58C842.966 7.82 835.611 0 820.902 0c-14.342 0-21.696 7.82-28.315 14.62-6.252 6.8-11.768 12.58-22.8 12.58s-16.548-5.78-22.8-12.58C740.37 7.82 733.015 0 718.674 0c-14.342 0-21.697 7.82-28.316 14.62-6.251 6.8-11.767 12.58-22.8 12.58-11.031 0-16.547-5.78-22.798-12.58C638.139 7.82 630.785 0 616.443 0c-2.206 0-3.677 1.36-3.677 3.4s1.47 3.4 3.677 3.4c11.032 0 16.548 5.78 22.8 12.58 6.619 6.8 13.973 14.62 28.315 14.62 14.341 0 21.696-7.82 28.315-14.62 6.252-6.8 11.768-12.58 22.8-12.58s16.547 5.78 22.799 12.58c6.62 6.8 13.974 14.62 28.315 14.62 14.342 0 21.696-7.82 28.316-14.62 6.251-6.8 11.767-12.58 22.799-12.58s16.548 5.78 22.8 12.58C850.32 26.18 857.674 34 872.016 34c14.341 0 21.696-7.82 28.315-14.62 6.251-6.8 11.767-12.58 22.8-12.58 2.206 0 3.677-1.36 3.677-3.4S925.338 0 923.13 0Z" id="path-5"/><path d="M1229.514 0c-14.341 0-21.696 7.82-28.315 14.62-6.252 6.8-11.768 12.58-22.8 12.58-11.031 0-16.547-5.78-22.799-12.58C1149.35 7.82 1141.994 0 1127.285 0c-14.342 0-21.696 7.82-28.315 14.62-6.252 6.8-11.768 12.58-22.8 12.58s-16.548-5.78-22.8-12.58C1046.753 7.82 1039.398 0 1025.057 0c-14.342 0-21.697 7.82-28.316 14.62-6.251 6.8-11.767 12.58-22.8 12.58-11.031 0-16.547-5.78-22.798-12.58C944.522 7.82 937.168 0 922.826 0c-2.206 0-3.677 1.36-3.677 3.4s1.47 3.4 3.677 3.4c11.032 0 16.548 5.78 22.8 12.58C952.245 26.18 959.599 34 973.94 34c14.341 0 21.696-7.82 28.315-14.62 6.252-6.8 11.768-12.58 22.8-12.58s16.547 5.78 22.799 12.58c6.62 6.8 13.974 14.62 28.315 14.62 14.342 0 21.696-7.82 28.316-14.62 6.251-6.8 11.767-12.58 22.799-12.58s16.548 5.78 22.8 12.58c6.618 6.8 13.973 14.62 28.315 14.62 14.341 0 21.696-7.82 28.315-14.62 6.251-6.8 11.767-12.58 22.8-12.58 2.206 0 3.676-1.36 3.676-3.4s-1.47-3.4-3.677-3.4Z" id="path-7"/><path d="M1436.323 0c-14.342 0-21.696 7.82-28.316 14.62-6.251 6.8-11.767 12.58-22.799 12.58s-16.548-5.78-22.8-12.58c-6.25-6.8-13.605-14.62-28.315-14.62-14.341 0-21.696 7.82-28.315 14.62-6.251 6.8-11.767 12.58-22.8 12.58-11.031 0-16.547-5.78-22.799-12.58C1253.56 7.82 1246.206 0 1231.864 0c-14.341 0-21.696 7.82-28.315 14.62-6.252 6.8-11.768 12.58-22.8 12.58s-16.548-5.78-22.799-12.58C1151.33 7.82 1143.976 0 1129.635 0c-2.207 0-3.678 1.36-3.678 3.4s1.471 3.4 3.678 3.4c11.032 0 16.548 5.78 22.8 12.58 6.618 6.8 13.973 14.62 28.314 14.62 14.342 0 21.697-7.82 28.316-14.62 6.251-6.8 11.767-12.58 22.8-12.58 11.031 0 16.547 5.78 22.798 12.58 6.62 6.8 13.974 14.62 28.316 14.62 14.341 0 21.696-7.82 28.315-14.62 6.251-6.8 11.767-12.58 22.8-12.58 11.031 0 16.547 5.78 22.799 12.58 6.619 6.8 13.974 14.62 28.315 14.62 14.342 0 21.696-7.82 28.315-14.62 6.252-6.8 11.768-12.58 22.8-12.58 2.206 0 3.677-1.36 3.677-3.4s-1.47-3.4-3.677-3.4Z" id="path-9"/></defs><g id="Artboard-2" stroke="none" stroke-width="1" fill="none" fill-rule="evenodd" transform="translate(-294 -1122)"><g id="both-squiggles" transform="translate(294 1122)" fill-rule="nonzero"><g id="squiggle"><g id="Shape"><use fill="#000" filter="url('#filter-2')" xlink:href="#path-1"/><use fill="#FFF" fill-rule="evenodd" xlink:href="#path-1"/></g><g id="Shape-Copy"><use fill="#000" filter="url('#filter-4')" xlink:href="#path-3"/><use fill="#FFF" fill-rule="evenodd" xlink:href="#path-3"/></g><g id="Shape-Copy-3"><use fill="#000" filter="url('#filter-6')" xlink:href="#path-5"/><use fill="#FFF" fill-rule="evenodd" xlink:href="#path-5"/></g><g id="Shape-Copy-2"><use fill="#000" filter="url('#filter-8')" xlink:href="#path-7"/><use fill="#FFF" fill-rule="evenodd" xlink:href="#path-7"/></g><g id="Shape-Copy-4"><use fill="#000" filter="url('#filter-10')" xlink:href="#path-9"/><use fill="#FFF" fill-rule="evenodd" xlink:href="#path-9"/></g></g><g id="flipped-squiggles" transform="matrix(1 0 0 -1 0 34)" fill="#FFF"><path d="M310.365 0c-14.341 0-21.696 7.82-28.315 14.62-6.252 6.8-11.767 12.58-22.8 12.58-11.031 0-16.547-5.78-22.799-12.58C230.2 7.82 222.845 0 208.136 0c-14.342 0-21.696 7.82-28.315 14.62-6.252 6.8-11.768 12.58-22.8 12.58s-16.548-5.78-22.8-12.58C127.604 7.82 120.249 0 105.908 0 91.565 0 84.21 7.82 77.59 14.62 71.34 21.42 65.824 27.2 54.792 27.2s-16.548-5.78-22.8-12.58C25.374 7.82 18.02 0 3.678 0 1.471 0 0 1.36 0 3.4s1.47 3.4 3.677 3.4c11.032 0 16.548 5.78 22.8 12.58C33.096 26.18 40.45 34 54.792 34c14.341 0 21.696-7.82 28.315-14.62 6.252-6.8 11.768-12.58 22.8-12.58s16.548 5.78 22.799 12.58c6.62 6.8 13.974 14.62 28.315 14.62 14.342 0 21.696-7.82 28.316-14.62 6.251-6.8 11.767-12.58 22.799-12.58s16.548 5.78 22.8 12.58C237.553 26.18 244.908 34 259.25 34c14.341 0 21.696-7.82 28.315-14.62 6.251-6.8 11.767-12.58 22.8-12.58 2.206 0 3.677-1.36 3.677-3.4S312.572 0 310.365 0Z" id="Shape"/><path d="M616.748 0c-14.341 0-21.696 7.82-28.315 14.62-6.252 6.8-11.767 12.58-22.8 12.58-11.031 0-16.547-5.78-22.799-12.58C536.583 7.82 529.228 0 514.52 0c-14.342 0-21.696 7.82-28.315 14.62-6.252 6.8-11.768 12.58-22.8 12.58s-16.548-5.78-22.8-12.58C433.987 7.82 426.632 0 412.29 0c-14.342 0-21.697 7.82-28.316 14.62-6.251 6.8-11.767 12.58-22.8 12.58-11.031 0-16.547-5.78-22.798-12.58C331.756 7.82 324.402 0 310.06 0c-2.206 0-3.677 1.36-3.677 3.4s1.47 3.4 3.677 3.4c11.032 0 16.548 5.78 22.8 12.58 6.619 6.8 13.973 14.62 28.315 14.62 14.341 0 21.696-7.82 28.315-14.62 6.252-6.8 11.768-12.58 22.8-12.58s16.548 5.78 22.799 12.58c6.62 6.8 13.974 14.62 28.315 14.62 14.342 0 21.696-7.82 28.316-14.62 6.251-6.8 11.767-12.58 22.799-12.58s16.548 5.78 22.8 12.58c6.618 6.8 13.973 14.62 28.315 14.62 14.341 0 21.696-7.82 28.315-14.62 6.251-6.8 11.767-12.58 22.8-12.58 2.206 0 3.677-1.36 3.677-3.4S618.955 0 616.748 0Z" id="Shape-Copy"/><path d="M923.131 0c-14.341 0-21.696 7.82-28.315 14.62-6.252 6.8-11.768 12.58-22.8 12.58-11.031 0-16.547-5.78-22.799-12.58C842.966 7.82 835.611 0 820.902 0c-14.342 0-21.696 7.82-28.315 14.62-6.252 6.8-11.768 12.58-22.8 12.58s-16.548-5.78-22.8-12.58C740.37 7.82 733.015 0 718.674 0c-14.342 0-21.697 7.82-28.316 14.62-6.251 6.8-11.767 12.58-22.8 12.58-11.031 0-16.547-5.78-22.798-12.58C638.139 7.82 630.785 0 616.443 0c-2.206 0-3.677 1.36-3.677 3.4s1.47 3.4 3.677 3.4c11.032 0 16.548 5.78 22.8 12.58 6.619 6.8 13.973 14.62 28.315 14.62 14.341 0 21.696-7.82 28.315-14.62 6.252-6.8 11.768-12.58 22.8-12.58s16.547 5.78 22.799 12.58c6.62 6.8 13.974 14.62 28.315 14.62 14.342 0 21.696-7.82 28.316-14.62 6.251-6.8 11.767-12.58 22.799-12.58s16.548 5.78 22.8 12.58C850.32 26.18 857.674 34 872.016 34c14.341 0 21.696-7.82 28.315-14.62 6.251-6.8 11.767-12.58 22.8-12.58 2.206 0 3.677-1.36 3.677-3.4S925.338 0 923.13 0Z" id="Shape-Copy-3"/><path d="M1229.514 0c-14.341 0-21.696 7.82-28.315 14.62-6.252 6.8-11.768 12.58-22.8 12.58-11.031 0-16.547-5.78-22.799-12.58C1149.35 7.82 1141.994 0 1127.285 0c-14.342 0-21.696 7.82-28.315 14.62-6.252 6.8-11.768 12.58-22.8 12.58s-16.548-5.78-22.8-12.58C1046.753 7.82 1039.398 0 1025.057 0c-14.342 0-21.697 7.82-28.316 14.62-6.251 6.8-11.767 12.58-22.8 12.58-11.031 0-16.547-5.78-22.798-12.58C944.522 7.82 937.168 0 922.826 0c-2.206 0-3.677 1.36-3.677 3.4s1.47 3.4 3.677 3.4c11.032 0 16.548 5.78 22.8 12.58C952.245 26.18 959.599 34 973.94 34c14.341 0 21.696-7.82 28.315-14.62 6.252-6.8 11.768-12.58 22.8-12.58s16.547 5.78 22.799 12.58c6.62 6.8 13.974 14.62 28.315 14.62 14.342 0 21.696-7.82 28.316-14.62 6.251-6.8 11.767-12.58 22.799-12.58s16.548 5.78 22.8 12.58c6.618 6.8 13.973 14.62 28.315 14.62 14.341 0 21.696-7.82 28.315-14.62 6.251-6.8 11.767-12.58 22.8-12.58 2.206 0 3.676-1.36 3.676-3.4s-1.47-3.4-3.677-3.4Z" id="Shape-Copy-2"/><path d="M1436.323 0c-14.342 0-21.696 7.82-28.316 14.62-6.251 6.8-11.767 12.58-22.799 12.58s-16.548-5.78-22.8-12.58c-6.25-6.8-13.605-14.62-28.315-14.62-14.341 0-21.696 7.82-28.315 14.62-6.251 6.8-11.767 12.58-22.8 12.58-11.031 0-16.547-5.78-22.799-12.58C1253.56 7.82 1246.206 0 1231.864 0c-14.341 0-21.696 7.82-28.315 14.62-6.252 6.8-11.768 12.58-22.8 12.58s-16.548-5.78-22.799-12.58C1151.33 7.82 1143.976 0 1129.635 0c-2.207 0-3.678 1.36-3.678 3.4s1.471 3.4 3.678 3.4c11.032 0 16.548 5.78 22.8 12.58 6.618 6.8 13.973 14.62 28.314 14.62 14.342 0 21.697-7.82 28.316-14.62 6.251-6.8 11.767-12.58 22.8-12.58 11.031 0 16.547 5.78 22.798 12.58 6.62 6.8 13.974 14.62 28.316 14.62 14.341 0 21.696-7.82 28.315-14.62 6.251-6.8 11.767-12.58 22.8-12.58 11.031 0 16.547 5.78 22.799 12.58 6.619 6.8 13.974 14.62 28.315 14.62 14.342 0 21.696-7.82 28.315-14.62 6.252-6.8 11.768-12.58 22.8-12.58 2.206 0 3.677-1.36 3.677-3.4s-1.47-3.4-3.677-3.4Z" id="Shape-Copy-4"/></g></g></g></svg>